<svg width="230" height="165" viewBox="0 0 230 165" fill="none" xmlns="http://www.w3.org/2000/svg">
<g opacity="0.35">
<mask id="mask0_265_3521" style="mask-type:alpha" maskUnits="userSpaceOnUse" x="0" y="0" width="230" height="165">
<rect width="230" height="165" fill="#D9D9D9"/>
</mask>
<g mask="url(#mask0_265_3521)">
<path d="M84.0156 21.6176L92.3378 19.1114L92.6637 20.2642L89.1293 21.2918L91.6359 30.264L90.4077 30.6149L87.901 21.6427L84.3666 22.6702L84.0407 21.5173L84.0156 21.6176Z" fill="white"/>
<path d="M98.6066 17.8836C99.3069 17.7397 100.029 17.7414 100.729 17.8885C101.428 18.0356 102.09 18.325 102.673 18.7387C103.256 19.1523 103.748 19.6815 104.118 20.2932C104.488 20.9049 104.728 21.5861 104.823 22.2945C104.943 22.9889 104.925 23.7002 104.771 24.3878C104.616 25.0753 104.327 25.7257 103.921 26.3017C103.515 26.8777 102.999 27.368 102.403 27.7448C101.808 28.1215 101.144 28.3772 100.449 28.4973C99.7544 28.6175 99.043 28.5996 98.3553 28.4449C97.6676 28.2901 97.0172 28.0014 96.4411 27.5953C95.865 27.1892 95.3745 26.6737 94.9977 26.0781C94.6209 25.4824 94.3651 24.8185 94.245 24.124C94.1008 23.4261 94.1006 22.706 94.2444 22.008C94.3883 21.31 94.673 20.6487 95.0813 20.0645C95.4896 19.4803 96.0129 18.9856 96.619 18.6106C97.2252 18.2356 97.9015 17.9882 98.6066 17.8836ZM100.236 27.357C100.774 27.2684 101.288 27.0702 101.747 26.7748C102.206 26.4793 102.599 26.0929 102.902 25.6395C103.205 25.1861 103.412 24.6753 103.509 24.1387C103.607 23.6021 103.593 23.0512 103.47 22.52C103.397 21.9854 103.218 21.4709 102.942 21.0073C102.666 20.5437 102.299 20.1405 101.863 19.8219C101.428 19.5033 100.933 19.2759 100.407 19.1532C99.8817 19.0305 99.3369 19.0151 98.8053 19.1079C98.2737 19.2007 97.7663 19.3998 97.3135 19.6933C96.8607 19.9867 96.4718 20.3685 96.1701 20.8158C95.8683 21.2631 95.66 21.7666 95.5575 22.2963C95.455 22.826 95.4604 23.3709 95.5735 23.8985C95.6436 24.4356 95.8211 24.9531 96.0955 25.4201C96.3699 25.8872 96.7356 26.2942 97.1707 26.6169C97.6057 26.9397 98.1014 27.1716 98.628 27.2987C99.1546 27.4259 99.7015 27.4457 100.236 27.357Z" fill="white"/>
<path d="M106.953 16.9059L112.919 16.5551V17.758L108.282 18.0087L108.482 21.1163C109.013 21.0274 109.549 20.9689 110.086 20.9409C112.443 20.8156 113.847 21.9434 113.947 23.8231C114.047 25.7027 112.618 27.2566 110.086 27.4069H107.58L106.978 16.8809L106.953 16.9059ZM108.532 22.2692L108.758 26.1288H110.212C111.941 26.1288 112.718 25.2015 112.718 23.9233C112.718 22.6451 111.816 21.9935 110.212 22.0687C109.698 22.0859 109.187 22.1445 108.683 22.2441L108.532 22.2692Z" fill="white"/>
<path d="M121.391 16.5551C122.103 16.5791 122.802 16.7488 123.446 17.0536C124.09 17.3585 124.665 17.792 125.134 18.3274C125.604 18.8629 125.959 19.4889 126.178 20.1668C126.396 20.8448 126.473 21.5603 126.404 22.2692C126.47 23.035 126.37 23.8059 126.112 24.5297C125.854 25.2535 125.443 25.9134 124.907 26.4647C124.371 27.0159 123.724 27.4456 123.007 27.7246C122.291 28.0036 121.523 28.1255 120.756 28.082C119.988 28.0385 119.239 27.8305 118.559 27.4723C117.879 27.114 117.284 26.6138 116.814 26.0056C116.344 25.3973 116.011 24.6952 115.836 23.9468C115.661 23.1984 115.649 22.4211 115.801 21.6677C115.82 20.961 115.981 20.2654 116.275 19.6223C116.568 18.9792 116.988 18.4018 117.51 17.9246C118.032 17.4474 118.644 17.0802 119.311 16.8449C119.978 16.6096 120.685 16.5111 121.391 16.5551ZM120.814 26.1288C121.359 26.1668 121.906 26.0917 122.421 25.9083C122.935 25.7248 123.406 25.4369 123.804 25.0626C124.202 24.6884 124.518 24.2359 124.733 23.7336C124.947 23.2313 125.055 22.6901 125.051 22.1439C125.112 21.5986 125.061 21.0465 124.901 20.5215C124.742 19.9965 124.477 19.5096 124.122 19.0904C123.768 18.6713 123.332 18.3289 122.841 18.084C122.35 17.8391 121.814 17.697 121.266 17.6662C120.718 17.6355 120.169 17.7169 119.654 17.9053C119.139 18.0937 118.667 18.3853 118.268 18.7622C117.869 19.1391 117.551 19.5934 117.334 20.0973C117.117 20.6012 117.005 21.1441 117.004 21.6928C116.956 22.2355 117.018 22.7824 117.184 23.3011C117.351 23.8199 117.62 24.3 117.975 24.7134C118.33 25.1267 118.764 25.4649 119.251 25.708C119.739 25.951 120.271 26.0941 120.814 26.1288Z" fill="white"/>
<path d="M135.53 19.7382L131.77 19.0615L131.244 21.1166C129.464 27.5826 127.91 28.1841 126.23 27.6828L126.481 26.4297C127.208 26.6302 128.512 26.4297 130.191 19.8384L130.843 17.658L137.034 18.7608L135.179 29.1114L133.926 28.8858L135.555 19.7131L135.53 19.7382Z" fill="white"/>
<path d="M140.869 23.798L142.298 24.1489C144.805 24.9007 145.757 26.4797 145.206 28.3844C144.654 30.2891 142.699 31.2916 140.192 30.5397L137.836 29.8129L140.794 19.7881L142.022 20.139L140.869 23.798ZM140.518 24.9759L139.34 28.9859L140.618 29.4119C142.273 29.8881 143.476 29.4119 143.902 28.0335C144.328 26.6551 143.526 25.7529 141.872 25.2767C141.521 25.1764 141.019 25.0762 140.493 24.9759H140.518Z" fill="white"/>
<path d="M153.403 34.1737C152.257 34.5724 151.002 34.5187 149.894 34.0233C149.205 33.8031 148.571 33.4364 148.037 32.9482C147.503 32.46 147.081 31.862 146.8 31.1952C146.519 30.5285 146.385 29.8088 146.409 29.0857C146.432 28.3625 146.612 27.653 146.936 27.006C147.146 26.3222 147.499 25.6912 147.973 25.1553C148.447 24.6195 149.029 24.1912 149.682 23.8992C150.335 23.6072 151.043 23.4583 151.759 23.4624C152.474 23.4666 153.18 23.6237 153.829 23.9233C154.881 24.3313 155.764 25.0818 156.336 26.0536L155.434 26.7303C154.955 25.9608 154.244 25.3638 153.403 25.026C152.9 24.822 152.36 24.7256 151.817 24.7431C151.275 24.7607 150.742 24.8918 150.253 25.1279C149.764 25.364 149.33 25.7 148.979 26.1141C148.628 26.5283 148.367 27.0113 148.214 27.5323C147.975 28.0334 147.844 28.5792 147.83 29.1342C147.816 29.6892 147.918 30.2411 148.131 30.7539C148.344 31.2667 148.662 31.7291 149.065 32.111C149.468 32.493 149.947 32.7858 150.471 32.9707C151.395 33.2955 152.403 33.2955 153.328 32.9707L153.453 34.0484L153.403 34.1737Z" fill="white"/>
<path d="M159.341 26.5799L160.47 27.1814L155.456 36.4794L154.328 35.8779L159.341 26.5799ZM159.692 32.3442L161.422 39.5871L159.968 38.8102L158.414 31.7427L164.856 29.462L166.235 30.1888L159.768 32.3692L159.692 32.3442Z" fill="white"/>
<path d="M171.827 33.6474C172.432 34.0325 172.952 34.5384 173.353 35.1335C173.754 35.7287 174.027 36.4001 174.157 37.1059C174.286 37.8117 174.269 38.5366 174.105 39.2352C173.941 39.9339 173.635 40.5912 173.205 41.166C172.819 41.7688 172.314 42.2868 171.721 42.6886C171.128 43.0905 170.46 43.3678 169.757 43.5037C169.054 43.6396 168.33 43.6313 167.63 43.4794C166.93 43.3274 166.269 43.0349 165.685 42.6196C165.08 42.2345 164.56 41.7286 164.159 41.1334C163.758 40.5383 163.484 39.8668 163.355 39.1611C163.226 38.4553 163.243 37.7304 163.407 37.0317C163.571 36.3331 163.877 35.6758 164.307 35.101C164.691 34.4954 165.194 33.9746 165.787 33.5707C166.38 33.1668 167.049 32.8882 167.753 32.7521C168.457 32.616 169.182 32.6252 169.882 32.7791C170.583 32.9331 171.244 33.2286 171.827 33.6474ZM166.387 41.5921C166.834 41.904 167.34 42.1209 167.875 42.2295C168.409 42.338 168.96 42.3359 169.493 42.2231C170.026 42.1104 170.531 41.8894 170.975 41.574C171.42 41.2585 171.795 40.8552 172.077 40.3891C172.496 39.7176 172.709 38.9377 172.688 38.1466C172.667 37.3554 172.413 36.5879 171.96 35.9395C171.506 35.2911 170.871 34.7904 170.135 34.4999C169.398 34.2094 168.593 34.1418 167.818 34.3055C167.044 34.4693 166.335 34.8571 165.779 35.4208C165.223 35.9845 164.846 36.6991 164.693 37.4757C164.541 38.2523 164.62 39.0566 164.921 39.7885C165.222 40.5204 165.732 41.1476 166.387 41.5921Z" fill="white"/>
<path d="M178.47 38.8102L182.982 42.6697L182.205 43.5719L178.67 40.5394L176.464 43.0456L179.648 45.7774L178.871 46.6796L175.687 43.9479L173.456 46.6796L177.116 49.8124L176.339 50.7146L171.727 46.7548L178.47 38.7851V38.8102Z" fill="white"/>
<path d="M187.97 47.4566L188.822 48.434L187.293 54.9502L193.861 54.3236L194.663 55.2509L186.666 62.0928L185.839 61.2157L192.306 55.677L185.99 56.2033V56.0529L187.469 49.8124L181.026 55.3261L180.199 54.3487L187.97 47.4566Z" fill="white"/>
<path d="M199.599 62.2181C200.021 62.8088 200.313 63.4813 200.459 64.1921C200.604 64.9029 200.598 65.6362 200.442 66.3448C200.286 67.0533 199.984 67.7213 199.554 68.3055C199.123 68.8898 198.575 69.3774 197.945 69.7367C197.355 70.1499 196.687 70.4377 195.981 70.5823C195.275 70.7268 194.548 70.725 193.843 70.577C193.138 70.429 192.471 70.1379 191.883 69.7218C191.295 69.3057 190.799 68.7734 190.425 68.1578C190.004 67.5671 189.711 66.8947 189.566 66.1839C189.421 65.473 189.426 64.7397 189.582 64.0312C189.738 63.3226 190.041 62.6547 190.471 62.0704C190.901 61.4861 191.449 60.9986 192.079 60.6392C192.669 60.226 193.338 59.9382 194.043 59.7937C194.749 59.6491 195.477 59.6509 196.182 59.7989C196.887 59.9469 197.554 60.238 198.142 60.6541C198.729 61.0702 199.226 61.6025 199.599 62.2181ZM191.503 67.431C191.793 67.8928 192.176 68.2901 192.626 68.5981C193.077 68.9062 193.585 69.1184 194.121 69.2218C194.657 69.3252 195.208 69.3175 195.741 69.1991C196.274 69.0808 196.777 68.8543 197.218 68.5337C197.681 68.2521 198.082 67.8807 198.399 67.4415C198.716 67.0023 198.942 66.5041 199.064 65.9764C199.185 65.4486 199.2 64.9018 199.107 64.3683C199.014 63.8347 198.815 63.3252 198.522 62.8697C198.231 62.4079 197.849 62.0107 197.398 61.7026C196.948 61.3946 196.439 61.1823 195.903 61.0789C195.367 60.9755 194.816 60.9833 194.283 61.1016C193.751 61.22 193.248 61.4464 192.806 61.767C192.346 62.051 191.947 62.4236 191.632 62.863C191.317 63.3024 191.093 63.7999 190.971 64.3268C190.85 64.8536 190.835 65.3993 190.926 65.9322C191.017 66.465 191.213 66.9745 191.503 67.431Z" fill="white"/>
<path d="M205.342 75.5261L203.663 72.0926L201.808 72.7943C195.516 75.1752 194.112 74.273 193.586 72.7943L194.739 72.243C194.99 72.9447 195.892 73.9221 202.259 71.3658L204.214 70.5889L206.972 76.2529L197.496 80.7641L196.945 79.6112L205.342 75.5261Z" fill="white"/>
<path d="M210.105 84.0472C210.461 85.0599 210.507 86.1555 210.239 87.1948C209.971 88.2341 209.4 89.1702 208.598 89.8841C207.796 90.5981 206.8 91.0577 205.737 91.2044C204.673 91.3512 203.59 91.1786 202.625 90.7085C201.66 90.2384 200.856 89.492 200.317 88.5643C199.777 87.6365 199.525 86.5692 199.593 85.498C199.661 84.4268 200.046 83.4 200.7 82.5482C201.353 81.6964 202.244 81.0579 203.261 80.7139C203.928 80.4593 204.64 80.3442 205.353 80.3757C206.066 80.4072 206.764 80.5847 207.406 80.8972C208.047 81.2096 208.618 81.6504 209.082 82.1923C209.546 82.7341 209.894 83.3654 210.105 84.0472ZM201.031 87.1298C201.195 87.6512 201.466 88.1331 201.825 88.5456C202.184 88.9581 202.624 89.2922 203.117 89.5273C203.611 89.7624 204.148 89.8934 204.695 89.9121C205.241 89.9308 205.786 89.8368 206.295 89.636C207.025 89.3532 207.657 88.8626 208.112 88.2248C208.567 87.587 208.825 86.8299 208.855 86.047C208.884 85.2642 208.683 84.4898 208.278 83.8197C207.872 83.1495 207.279 82.6129 206.571 82.2761C205.864 81.9393 205.073 81.817 204.297 81.9244C203.521 82.0318 202.793 82.3642 202.204 82.8805C201.614 83.3968 201.189 84.0744 200.981 84.8295C200.772 85.5847 200.789 86.3844 201.031 87.1298Z" fill="white"/>
<path d="M212.408 92.1673L212.659 93.4204L202.356 95.6008L202.105 94.3477L212.408 92.1673ZM208.172 96.1271L203.735 102.117L203.534 100.513L207.921 94.7236L213.812 98.2073L214.138 99.711L208.322 96.1271H208.172Z" fill="white"/>
<path d="M214.915 106.327C215.03 107.395 214.824 108.472 214.325 109.423C213.825 110.373 213.054 111.154 212.11 111.665C211.166 112.177 210.091 112.396 209.022 112.294C207.952 112.193 206.938 111.776 206.106 111.097C205.274 110.418 204.664 109.507 204.351 108.479C204.039 107.452 204.039 106.355 204.352 105.328C204.665 104.301 205.276 103.39 206.108 102.711C206.94 102.032 207.955 101.616 209.024 101.515C209.731 101.421 210.45 101.473 211.135 101.667C211.821 101.862 212.46 102.195 213.012 102.646C213.564 103.097 214.018 103.656 214.345 104.289C214.673 104.923 214.867 105.616 214.915 106.327ZM205.34 107.255C205.388 107.798 205.547 108.326 205.808 108.805C206.069 109.285 206.425 109.706 206.856 110.042C207.286 110.378 207.78 110.622 208.308 110.759C208.837 110.896 209.388 110.923 209.927 110.839C210.471 110.811 211.003 110.673 211.493 110.433C211.982 110.194 212.418 109.858 212.774 109.446C213.13 109.034 213.399 108.554 213.564 108.035C213.73 107.517 213.788 106.97 213.737 106.428C213.689 105.884 213.529 105.356 213.268 104.877C213.008 104.397 212.651 103.977 212.221 103.641C211.791 103.305 211.296 103.06 210.768 102.923C210.24 102.786 209.689 102.759 209.15 102.844C208.605 102.875 208.072 103.016 207.582 103.258C207.093 103.5 206.657 103.838 206.302 104.252C205.946 104.666 205.677 105.148 205.512 105.668C205.347 106.188 205.288 106.736 205.34 107.28V107.255Z" fill="white"/>
<path d="M214.29 130.412L212.686 138.908L211.508 138.682L212.185 135.074L203.035 133.344L203.261 132.091L212.41 133.82L213.087 130.211L214.265 130.437L214.29 130.412Z" fill="white"/>
<path d="M211.057 145.098C210.757 146.129 210.156 147.047 209.332 147.736C208.508 148.425 207.497 148.853 206.429 148.965C205.361 149.078 204.284 148.871 203.334 148.37C202.384 147.869 201.604 147.097 201.094 146.152C200.584 145.207 200.367 144.131 200.47 143.062C200.573 141.993 200.992 140.979 201.673 140.149C202.354 139.319 203.267 138.71 204.295 138.4C205.324 138.089 206.421 138.092 207.448 138.407C208.137 138.589 208.781 138.911 209.34 139.352C209.9 139.793 210.363 140.344 210.702 140.971C211.04 141.598 211.246 142.288 211.307 142.998C211.368 143.708 211.283 144.423 211.057 145.098ZM201.858 142.316C201.555 143.104 201.495 143.965 201.688 144.787C201.88 145.609 202.315 146.354 202.936 146.926C203.558 147.498 204.336 147.87 205.172 147.993C206.007 148.117 206.86 147.987 207.62 147.62C208.38 147.252 209.013 146.665 209.435 145.934C209.857 145.203 210.05 144.362 209.988 143.52C209.926 142.678 209.613 141.874 209.088 141.213C208.564 140.551 207.853 140.063 207.047 139.81C206.543 139.633 206.01 139.557 205.477 139.587C204.944 139.617 204.422 139.752 203.942 139.985C203.461 140.219 203.032 140.545 202.679 140.945C202.325 141.345 202.055 141.811 201.883 142.316H201.858Z" fill="white"/>
<path d="M208.148 153.068L205.642 158.532L204.539 158.055L206.419 153.77L203.661 152.567C203.511 153.068 203.26 153.695 203.11 154.071C202.157 156.226 200.603 156.953 198.798 156.201C196.994 155.449 196.292 153.469 197.345 151.188C197.771 150.211 198.172 149.459 198.397 148.908L208.048 153.118L208.148 153.068ZM202.659 152.066L199.099 150.512C198.874 150.938 198.673 151.339 198.473 151.815C197.771 153.394 198.172 154.472 199.325 154.998C200.478 155.524 201.456 154.998 202.132 153.519C202.283 153.143 202.483 152.617 202.659 152.091V152.066Z" fill="white"/>
<path d="M201.932 166.075C201.592 166.723 201.119 167.292 200.544 167.745C199.97 168.198 199.306 168.524 198.597 168.704C197.888 168.884 197.148 168.912 196.427 168.787C195.706 168.663 195.02 168.388 194.412 167.98C193.785 167.639 193.233 167.175 192.791 166.615C192.349 166.054 192.026 165.41 191.84 164.721C191.655 164.032 191.612 163.312 191.714 162.606C191.815 161.899 192.06 161.221 192.432 160.612C193.156 159.369 194.345 158.465 195.737 158.098C197.128 157.731 198.608 157.932 199.852 158.657C201.095 159.381 201.999 160.57 202.366 161.961C202.733 163.352 202.531 164.832 201.807 166.075H201.932ZM193.51 161.238C193.054 161.945 192.82 162.771 192.839 163.612C192.857 164.452 193.127 165.268 193.613 165.954C194.099 166.639 194.779 167.164 195.566 167.46C196.353 167.756 197.21 167.81 198.028 167.615C198.845 167.419 199.586 166.984 200.154 166.364C200.722 165.745 201.091 164.969 201.215 164.138C201.338 163.306 201.21 162.457 200.846 161.699C200.483 160.941 199.9 160.309 199.175 159.885C198.716 159.594 198.204 159.398 197.668 159.309C197.132 159.22 196.584 159.239 196.056 159.365C195.528 159.491 195.03 159.722 194.593 160.044C194.156 160.365 193.787 160.772 193.51 161.238Z" fill="white"/>
<path d="M30.324 167.479C29.9155 166.873 29.6389 166.188 29.5124 165.468C29.3858 164.748 29.412 164.01 29.5893 163.301C29.7665 162.592 30.0909 161.928 30.5414 161.353C30.9919 160.777 31.5583 160.303 32.204 159.96C32.809 159.56 33.4898 159.289 34.2041 159.163C34.9184 159.037 35.6509 159.059 36.3562 159.229C37.0615 159.398 37.7244 159.71 38.3038 160.147C38.8832 160.583 39.3666 161.134 39.7241 161.765C40.1326 162.371 40.4092 163.056 40.5357 163.775C40.6623 164.495 40.6361 165.234 40.4588 165.943C40.2816 166.652 39.9572 167.315 39.5067 167.891C39.0562 168.466 38.4898 168.941 37.8441 169.283C37.2403 169.687 36.5594 169.961 35.8443 170.089C35.1293 170.217 34.3955 170.196 33.6891 170.026C32.9828 169.857 32.3192 169.543 31.74 169.104C31.1609 168.666 30.6788 168.113 30.324 167.479ZM38.571 162.466C38.2949 161.994 37.9244 161.584 37.4828 161.261C37.0412 160.938 36.5378 160.71 36.004 160.59C35.4702 160.47 34.9175 160.461 34.3801 160.564C33.8428 160.667 33.3325 160.879 32.8808 161.188C32.3881 161.441 31.9525 161.792 31.6012 162.219C31.2499 162.647 30.9905 163.143 30.839 163.675C30.6875 164.208 30.6472 164.766 30.7206 165.314C30.794 165.863 30.9795 166.391 31.2657 166.865C31.5518 167.339 31.9324 167.749 32.3838 168.069C32.8352 168.39 33.3477 168.614 33.8895 168.728C34.4313 168.842 34.9907 168.843 35.5331 168.732C36.0754 168.62 36.589 168.399 37.0419 168.08C37.5122 167.82 37.9256 167.468 38.2579 167.045C38.5903 166.623 38.8349 166.138 38.9773 165.62C39.1198 165.102 39.1572 164.56 39.0874 164.027C39.0176 163.494 38.8421 162.981 38.571 162.516V162.466Z" fill="white"/>
<path d="M24.9581 153.945L26.5123 157.429L28.3923 156.777C34.7593 154.597 36.1129 155.549 36.5891 157.128L35.411 157.629C35.1603 156.903 34.3081 155.9 27.8909 158.281L25.8856 158.958L23.3789 153.193L32.9043 148.933L33.4307 150.111L24.908 153.945H24.9581Z" fill="white"/>
<path d="M25.3365 147.329C25.1109 146.803 24.9104 146.276 24.8101 145.95C23.9578 143.444 24.8101 141.79 26.6651 141.164C28.52 140.537 30.4502 141.565 31.3024 144.121C31.5782 144.973 31.8539 145.9 32.0294 146.477L22.0026 149.735L21.6016 148.507L25.3115 147.304L25.3365 147.329ZM26.4896 146.953L30.5755 145.65C30.4752 145.249 30.3499 144.823 30.1995 144.372C29.6731 142.717 28.6704 141.865 27.2165 142.442C25.7627 143.018 25.5621 144.046 26.0885 145.65C26.2365 146.087 26.4123 146.514 26.6149 146.928L26.4896 146.953Z" fill="white"/>
<path d="M26.8379 131.139C27.8118 131.862 28.4748 132.928 28.6928 134.121C28.8982 134.815 28.9511 135.544 28.8479 136.26C28.7447 136.976 28.4879 137.661 28.0949 138.268C27.702 138.875 27.1824 139.39 26.5716 139.777C25.9609 140.165 25.2736 140.415 24.5568 140.512C23.8682 140.739 23.1387 140.814 22.4184 140.731C21.6981 140.649 21.0043 140.411 20.3848 140.035C19.7653 139.658 19.2348 139.152 18.8298 138.551C18.4249 137.95 18.1553 137.268 18.0394 136.552C17.7488 135.432 17.8551 134.245 18.3402 133.194L19.4181 133.57C19.0584 134.474 19.023 135.475 19.3178 136.402C19.4284 136.938 19.6508 137.444 19.9706 137.888C20.2905 138.332 20.7004 138.703 21.1737 138.977C21.647 139.252 22.1729 139.423 22.717 139.48C23.2611 139.537 23.8112 139.479 24.3312 139.309C24.8903 139.227 25.4255 139.027 25.9008 138.721C26.3761 138.416 26.7805 138.012 27.0868 137.537C27.393 137.062 27.5942 136.528 27.6766 135.969C27.7591 135.41 27.721 134.84 27.5648 134.297C27.3747 133.31 26.842 132.422 26.0608 131.79L26.8379 131.139Z" fill="white"/>
<path d="M21.7764 126.928L26.7898 121.415L26.9653 123.044L21.9519 128.382L16.4372 124.347L16.2617 122.818L21.7012 126.953L21.7764 126.928ZM17.1892 130.462L17.0388 129.184L27.5167 128.031L27.6671 129.309L17.1892 130.462Z" fill="white"/>
<path d="M16.0609 116.352C16.026 115.637 16.1394 114.923 16.394 114.254C16.6487 113.585 17.039 112.976 17.5405 112.465C18.042 111.954 18.6438 111.553 19.308 111.286C19.9722 111.019 20.6845 110.892 21.4001 110.914C22.1045 110.904 22.804 111.033 23.4587 111.293C24.1133 111.554 24.7102 111.94 25.2153 112.431C25.7204 112.922 26.1238 113.508 26.4025 114.155C26.6812 114.802 26.8297 115.498 26.8396 116.202C26.8495 116.906 26.7205 117.606 26.46 118.26C26.1996 118.914 25.8127 119.511 25.3216 120.016C24.8305 120.521 24.2447 120.925 23.5976 121.203C22.9506 121.482 22.255 121.63 21.5505 121.64C20.8375 121.674 20.125 121.563 19.4567 121.312C18.7885 121.061 18.1786 120.676 17.6646 120.18C17.1505 119.685 16.7431 119.09 16.4673 118.432C16.1915 117.774 16.0532 117.066 16.0609 116.352ZM25.6865 116.352C25.6844 115.807 25.5704 115.268 25.3516 114.769C25.1327 114.269 24.8137 113.82 24.4143 113.449C24.0148 113.078 23.5435 112.792 23.0293 112.611C22.5152 112.429 21.9692 112.355 21.4252 112.392C20.87 112.358 20.3137 112.439 19.7913 112.63C19.2688 112.821 18.7914 113.117 18.3892 113.501C17.9869 113.886 17.6683 114.349 17.4535 114.862C17.2388 115.375 17.1324 115.926 17.141 116.483C17.1497 117.039 17.2732 117.587 17.5039 118.093C17.7346 118.599 18.0674 119.052 18.4814 119.423C18.8955 119.795 19.3818 120.076 19.91 120.251C20.4381 120.425 20.9967 120.489 21.5505 120.437C22.0931 120.451 22.6329 120.355 23.1375 120.155C23.6421 119.955 24.1012 119.655 24.4874 119.274C24.8735 118.893 25.1787 118.437 25.3848 117.935C25.5908 117.433 25.6934 116.895 25.6865 116.352Z" fill="white"/>
<path d="M16.4883 107.856L17.14 101.942H18.3432L17.8419 106.578L21.2259 106.954L21.6771 102.769H22.8803L22.4291 106.954L25.9385 107.33L26.4649 102.543H27.6681L26.9913 108.608L16.5133 107.831L16.4883 107.856Z" fill="white"/>
<path d="M18.2656 95.1246L18.5915 93.8715L24.8331 91.3653L20.5467 86.2777L20.8726 85.0998L31.0497 87.8316L30.7238 89.0596L22.5521 86.9544L26.638 91.9668V92.1673L20.5467 94.4229L28.7185 96.6283L28.3926 97.8564L18.2656 95.1246Z" fill="white"/>
<path d="M23.9569 77.13C24.2184 76.4639 24.6137 75.8584 25.1183 75.3509C25.6229 74.8434 26.2262 74.4447 26.8909 74.1793C27.5557 73.9139 28.2677 73.7876 28.9832 73.808C29.6987 73.8284 30.4023 73.9952 31.0508 74.298C31.7092 74.5745 32.3067 74.9779 32.8091 75.4852C33.3115 75.9925 33.7091 76.5938 33.9791 77.2547C34.2491 77.9157 34.3863 78.6233 34.3828 79.3372C34.3792 80.0512 34.2351 80.7574 33.9586 81.4157C33.6821 82.0739 33.2786 82.6712 32.7712 83.1736C32.2638 83.6759 31.6624 84.0734 31.0013 84.3434C30.3403 84.6133 29.6325 84.7505 28.9184 84.7469C28.2044 84.7434 27.498 84.5993 26.8396 84.3229C26.1584 84.0647 25.5382 83.668 25.0183 83.1578C24.4984 82.6477 24.09 82.0352 23.8191 81.3591C23.5481 80.683 23.4205 79.9581 23.4442 79.2301C23.4679 78.5022 23.6425 77.7871 23.9569 77.13ZM32.8306 80.8894C33.0529 80.3932 33.1706 79.8566 33.1764 79.3129C33.1822 78.7693 33.0759 78.2303 32.8643 77.7295C32.6526 77.2287 32.3401 76.7768 31.9462 76.402C31.5522 76.0273 31.0853 75.7376 30.5746 75.5511C29.5773 75.1357 28.4559 75.1334 27.457 75.5446C26.458 75.9559 25.6634 76.747 25.2479 77.7441C24.8324 78.7411 24.83 79.8623 25.2413 80.8611C25.6527 81.8598 26.444 82.6543 27.4412 83.0698C27.9369 83.2909 28.4721 83.4098 29.0148 83.4194C29.5574 83.4289 30.0965 83.3289 30.5996 83.1254C31.1028 82.9218 31.5597 82.6189 31.943 82.2347C32.3263 81.8505 32.6282 81.3929 32.8306 80.8894Z" fill="white"/>
<path d="M31.7268 64.8747L29.8217 68.1829L31.4511 69.3357C36.9407 73.1953 36.9908 74.8494 35.9882 76.1777L34.8852 75.5261C35.3364 74.8995 35.6372 73.6213 29.8719 69.8119L28.1172 68.634L31.2505 63.1705L40.3749 68.4084L39.7482 69.5112L31.7268 64.8747Z" fill="white"/>
<path d="M36.0383 56.2033C36.6732 55.3369 37.5516 54.679 38.5617 54.3132C39.5718 53.9474 40.6678 53.8903 41.7104 54.1492C42.753 54.408 43.6951 54.9711 44.4167 55.7668C45.1383 56.5624 45.6069 57.5548 45.7627 58.6175C45.9186 59.6802 45.7548 60.7652 45.2921 61.7346C44.8294 62.7039 44.0888 63.5137 43.1644 64.061C42.2401 64.6083 41.1738 64.8683 40.1012 64.8079C39.0286 64.7475 37.9983 64.3695 37.1412 63.7219C36.5627 63.3102 36.0735 62.7858 35.703 62.1802C35.3326 61.5745 35.0884 60.9002 34.9854 60.1978C34.8824 59.4954 34.9225 58.7794 35.1035 58.093C35.2844 57.4065 35.6024 56.7637 36.0383 56.2033ZM43.7338 61.9675C44.0733 61.5354 44.3192 61.0374 44.4558 60.5051C44.5924 59.9728 44.6166 59.4179 44.527 58.8757C44.4374 58.3335 44.236 57.8159 43.9354 57.3558C43.6348 56.8957 43.2418 56.5032 42.7812 56.2033C42.3653 55.8194 41.8729 55.5279 41.3363 55.3479C40.7996 55.168 40.231 55.1036 39.6677 55.159C39.1044 55.2145 38.5592 55.3885 38.068 55.6697C37.5768 55.9509 37.1507 56.3328 36.8177 56.7904C36.4847 57.248 36.2523 57.7709 36.1358 58.3247C36.0194 58.8785 36.0215 59.4506 36.142 60.0036C36.2626 60.5565 36.4988 61.0776 36.8352 61.5328C37.1715 61.9879 37.6005 62.3667 38.0937 62.6442C38.9333 63.2974 39.9968 63.5927 41.053 63.466C42.1092 63.3393 43.0726 62.8007 43.7338 61.9675Z" fill="white"/>
<path d="M41.4805 49.7122L42.3578 48.6846L49.8779 55.9777L49.0005 56.905L41.4805 49.7122ZM47.1456 50.9653L54.6656 51.266L53.5376 52.4439L46.2682 52.093L45.817 45.2762L46.8949 44.1484L47.1456 50.9653Z" fill="white"/>
<path d="M51.7291 39.6623C52.8348 38.8193 54.2224 38.4339 55.6046 38.586C56.9867 38.738 58.2574 39.4159 59.1532 40.4791C60.0491 41.5424 60.5015 42.9094 60.4167 44.2971C60.3319 45.6847 59.7163 46.9865 58.6977 47.9328C57.592 48.7758 56.2043 49.1612 54.8222 49.0091C53.44 48.857 52.1694 48.1792 51.2735 47.1159C50.3777 46.0527 49.9253 44.6856 50.0101 43.298C50.0949 41.9104 50.7104 40.6086 51.7291 39.6623ZM57.9206 47.0305C58.3512 46.6841 58.7051 46.2518 58.9596 45.7612C59.2142 45.2707 59.3639 44.7325 59.3993 44.181C59.4346 43.6295 59.3549 43.0766 59.165 42.5576C58.9752 42.0385 58.6795 41.5646 58.2966 41.166C57.7621 40.5832 57.0681 40.1703 56.3008 39.9785C55.5335 39.7868 54.7268 39.8247 53.9809 40.0874C53.2349 40.3502 52.5827 40.8264 52.1051 41.4567C51.6276 42.087 51.3458 42.8437 51.2948 43.6328C51.2437 44.4218 51.4257 45.2085 51.8181 45.8951C52.2105 46.5816 52.796 47.1377 53.5019 47.4944C54.2078 47.851 55.0029 47.9924 55.7885 47.9011C56.574 47.8097 57.3155 47.4895 57.9206 46.9804V47.0305Z" fill="white"/>
<path d="M226.747 116.051C226.747 120.162 221.734 123.971 221.182 127.956C220.631 131.941 224.867 136.878 223.99 140.813C223.113 144.748 217.247 147.379 215.918 151.188C214.59 154.998 217.523 160.687 215.743 164.321C213.963 167.955 207.721 169.333 205.566 172.642C203.41 175.95 205.014 182.24 202.483 185.398C199.951 188.556 193.584 188.355 190.701 191.238C187.818 194.12 188.044 200.486 184.861 203.017C181.677 205.548 175.536 203.919 172.076 206.099C168.617 208.28 167.464 214.52 163.779 216.275C160.094 218.029 154.505 215.097 150.644 216.45C146.784 217.803 144.252 223.593 140.267 224.52C136.281 225.447 131.493 221.262 127.407 221.738C123.321 222.214 119.612 227.277 115.501 227.277C111.39 227.277 107.579 222.264 103.594 221.713C99.6082 221.162 94.67 225.397 90.7345 224.52C86.799 223.643 84.1921 217.778 80.3569 216.45C76.5216 215.122 70.8565 218.054 67.2218 216.275C63.5871 214.495 62.3338 208.255 58.8996 206.099C55.4655 203.944 49.299 205.548 46.1406 203.017C42.9822 200.486 43.1075 194.045 40.3 191.238C37.4925 188.431 31.0504 188.581 28.5186 185.398C25.9869 182.215 27.6162 176.075 25.5607 172.617C23.5052 169.158 17.1383 168.005 15.3836 164.321C13.6289 160.637 16.5617 155.048 15.2081 151.188C13.8545 147.329 8.01393 144.798 7.01126 140.813C6.00859 136.828 10.2699 132.041 9.81875 127.956C9.36754 123.871 4.25391 120.162 4.25391 116.051C4.25391 111.941 9.26728 108.132 9.81875 104.147C10.3702 100.162 6.13392 95.2249 7.01126 91.2901C7.8886 87.3554 13.7542 84.7489 15.0828 80.9145C16.4113 77.08 13.4785 71.4159 15.2583 67.7819C17.038 64.1479 23.2796 62.8948 25.5607 59.4613C27.8418 56.0278 26.1122 49.8626 28.6439 46.7047C31.1757 43.5469 37.5427 43.7474 40.4254 40.8653C43.3081 37.9831 43.0825 31.6174 46.2659 29.0861C49.4494 26.5549 55.5908 28.1839 59.05 26.0035C62.5093 23.8231 63.6623 17.5826 67.3472 15.8283C71.032 14.0739 76.6219 17.0062 80.4822 15.6529C84.3425 14.2995 86.7489 8.58536 90.7345 7.58288C94.7202 6.58039 99.5079 10.8409 103.594 10.3898C107.68 9.93871 111.39 4.82605 115.501 4.82605C119.612 4.82605 123.422 9.83846 127.407 10.3898C131.393 10.9412 136.331 6.7057 140.267 7.58288C144.202 8.46005 146.834 14.3246 150.644 15.6529C154.454 16.9811 160.145 14.0489 163.779 15.8283C167.414 17.6077 168.793 23.8481 172.102 26.0035C175.41 28.1588 181.702 26.5549 184.861 29.0861C188.019 31.6174 187.818 37.9831 190.701 40.8653C193.584 43.7474 199.951 43.5219 202.483 46.7047C205.014 49.8876 203.385 56.0278 205.566 59.4864C207.747 62.945 213.988 64.0978 215.743 67.7819C217.498 71.4661 214.565 77.0549 215.918 80.9145C217.272 84.774 223.062 87.3053 223.99 91.2901C224.917 95.275 220.731 100.062 221.207 104.147C221.684 108.232 226.747 111.941 226.747 116.051Z" stroke="white" stroke-width="2" stroke-miterlimit="10"/>
<path d="M52.2568 95.4254V105.149L55.34 95.4254H59.3507L55.8664 105.45L59.6264 116.828H55.6408L52.357 106.202V116.828H48.5469V95.4254H52.2568Z" fill="white"/>
<path d="M68.6249 116.803L67.8729 111.791H64.514L63.787 116.803H60.1523L63.5865 95.4254H68.9007L72.3599 116.803H68.6249ZM66.1183 100.237L64.9401 108.282H67.2964L66.1183 100.237Z" fill="white"/>
<path d="M82.3111 95.4254V116.803H78.5762V108.658C77.9057 108.952 77.177 109.089 76.4455 109.059C75.796 109.135 75.138 109.049 74.53 108.808C73.922 108.567 73.3831 108.18 72.9612 107.681C72.2222 106.535 71.8707 105.182 71.9585 103.821V95.4254H75.6935V103.395C75.6241 103.985 75.7662 104.58 76.0946 105.074C76.2513 105.231 76.4398 105.352 76.6474 105.43C76.8549 105.508 77.0766 105.54 77.2978 105.525C77.7469 105.547 78.192 105.433 78.5762 105.2V95.4254H82.3111Z" fill="white"/>
<path d="M92.6637 113.32V116.803H84.0156V95.4254H92.6637V98.8088H87.6503V104.047H91.8114V107.355H87.7506V113.219L92.6637 113.32Z" fill="white"/>
<path d="M103.269 112.844V116.352C102.313 116.879 101.226 117.123 100.136 117.054C99.1518 117.125 98.1671 116.93 97.2849 116.489C96.4027 116.048 95.6556 115.377 95.1222 114.548C93.8772 111.978 93.3407 109.123 93.5681 106.277C93.327 103.277 93.8622 100.265 95.1222 97.5306C95.6859 96.683 96.4676 96.003 97.3851 95.5619C98.3026 95.1209 99.322 94.9352 100.336 95.0244C101.326 94.9984 102.309 95.1865 103.219 95.5758V99.0845C102.504 98.786 101.737 98.6327 100.963 98.6333C100.443 98.6262 99.9325 98.7659 99.489 99.0364C99.0455 99.3069 98.6875 99.6971 98.4561 100.162C97.7435 102.004 97.4522 103.982 97.6038 105.951C97.4055 107.939 97.6275 109.945 98.2556 111.841C98.4758 112.317 98.8306 112.717 99.2761 112.993C99.7216 113.27 100.238 113.409 100.762 113.395C101.633 113.452 102.502 113.261 103.269 112.844Z" fill="white"/>
<path d="M111.539 99.0093V116.803H107.779V99.0093H104.445V95.4254H114.873V99.0093H111.539Z" fill="white"/>
<path d="M121.468 116.803H115.953V95.4254H121.493C124.426 95.4254 125.88 97.2299 125.88 100.814C125.945 101.922 125.747 103.03 125.303 104.047C124.945 104.777 124.329 105.349 123.573 105.651C124.008 105.701 124.421 105.864 124.773 106.123C125.125 106.383 125.402 106.73 125.579 107.129C126.045 108.159 126.268 109.283 126.231 110.413C126.321 112.039 125.92 113.655 125.077 115.049C124.679 115.629 124.137 116.096 123.505 116.403C122.872 116.711 122.17 116.849 121.468 116.803ZM119.663 98.8088V104.448H120.816C121.869 104.448 122.37 103.47 122.37 101.541C122.424 100.809 122.321 100.074 122.069 99.3852C121.938 99.1794 121.749 99.0156 121.527 98.9135C121.305 98.8113 121.058 98.775 120.816 98.8088H119.663ZM119.663 107.38V113.52H120.666C120.921 113.539 121.177 113.488 121.407 113.373C121.636 113.258 121.83 113.084 121.969 112.869C122.323 112.155 122.47 111.356 122.395 110.563C122.456 109.71 122.327 108.854 122.019 108.057C121.903 107.827 121.723 107.636 121.5 107.507C121.278 107.378 121.023 107.317 120.766 107.33L119.663 107.38Z" fill="white"/>
<path d="M136.179 113.32V116.803H127.531V95.4254H136.179V98.8088H131.166V104.047H135.302V107.355H131.266V113.219L136.179 113.32Z" fill="white"/>
<path d="M148.388 95.4254V116.803H144.729V107.53H141.219V116.803H137.484V95.4254H141.219V104.022H144.729V95.4254H148.388Z" fill="white"/>
<path d="M161.099 95.4254V116.803H157.364V107.53H153.854V116.803H150.145V95.4254H153.854V104.022H157.364V95.4254H161.099Z" fill="white"/>
<path d="M168.441 117.029C167.243 117.091 166.056 116.766 165.057 116.102C164.041 115.234 163.344 114.052 163.077 112.743C162.53 110.573 162.286 108.339 162.35 106.102C162.286 103.849 162.531 101.597 163.077 99.4103C163.332 98.1157 164.011 96.9429 165.007 96.077C166.039 95.4785 167.211 95.1632 168.404 95.1632C169.596 95.1632 170.768 95.4785 171.8 96.077C172.803 96.9518 173.49 98.1318 173.755 99.4353C174.29 101.607 174.526 103.841 174.457 106.077C174.526 108.32 174.29 110.563 173.755 112.743C173.478 114.048 172.782 115.227 171.775 116.102C170.79 116.756 169.623 117.08 168.441 117.029ZM168.441 113.52C168.653 113.533 168.865 113.497 169.061 113.414C169.257 113.332 169.43 113.205 169.569 113.044C169.966 112.391 170.198 111.651 170.246 110.889C170.456 109.302 170.548 107.702 170.522 106.102C170.563 104.503 170.487 102.903 170.296 101.315C170.246 100.561 170.013 99.8299 169.619 99.1847C169.468 99.0332 169.288 98.9129 169.09 98.8309C168.892 98.7489 168.68 98.7066 168.466 98.7066C168.252 98.7066 168.04 98.7489 167.842 98.8309C167.644 98.9129 167.464 99.0332 167.313 99.1847C166.926 99.8423 166.695 100.579 166.636 101.34C166.438 102.936 166.354 104.544 166.386 106.152C166.347 107.744 166.439 109.337 166.661 110.914C166.707 111.688 166.949 112.438 167.363 113.094C167.501 113.239 167.669 113.352 167.855 113.426C168.041 113.5 168.241 113.532 168.441 113.52Z" fill="white"/>
<path d="M184.509 113.32V116.803H175.961V95.4254H184.584V98.8088H179.571V104.047H183.732V107.355H179.596V113.219L184.509 113.32Z" fill="white"/>
<path d="M97.0277 149.484V152.968C96.0611 153.492 94.967 153.735 93.8693 153.67C92.8855 153.741 91.9008 153.545 91.0186 153.104C90.1364 152.663 89.3893 151.993 88.8559 151.163C87.5881 148.601 87.0421 145.742 87.2767 142.893C87.0299 139.881 87.5742 136.858 88.8559 134.121C89.4196 133.274 90.2013 132.594 91.1188 132.153C92.0363 131.711 93.0557 131.526 94.0698 131.615C95.0513 131.587 96.0269 131.775 96.9275 132.166V135.675C96.2128 135.377 95.4459 135.223 94.6714 135.224C94.152 135.217 93.6411 135.357 93.1976 135.627C92.7542 135.897 92.3961 136.288 92.1648 136.753C91.4758 138.601 91.1936 140.575 91.3376 142.542C91.2005 144.488 91.465 146.442 92.1146 148.281C92.3349 148.757 92.6897 149.157 93.1352 149.434C93.5807 149.71 94.0973 149.849 94.6213 149.835C95.4404 149.932 96.2704 149.811 97.0277 149.484Z" fill="white"/>
<path d="M102.541 153.419H98.4297V132.066H102.14V139.434H103.268C103.949 139.379 104.634 139.486 105.266 139.748C105.898 140.009 106.459 140.417 106.902 140.938C107.825 142.539 108.228 144.387 108.055 146.226C108.2 148.127 107.754 150.027 106.777 151.665C106.271 152.285 105.619 152.769 104.88 153.075C104.141 153.382 103.337 153.5 102.541 153.419ZM102.064 142.893V149.985H102.691C102.986 149.996 103.277 149.912 103.521 149.745C103.765 149.578 103.948 149.337 104.045 149.058C104.313 148.156 104.431 147.217 104.396 146.276C104.439 145.424 104.311 144.572 104.02 143.77C103.897 143.515 103.7 143.303 103.453 143.164C103.206 143.025 102.923 142.965 102.641 142.993L102.064 142.893ZM112.668 132.066V153.419H108.933V132.066H112.668Z" fill="white"/>
<path d="M118.083 146.276V153.419H114.348V132.066H119.135C119.878 132.004 120.624 132.119 121.313 132.402C122.001 132.685 122.613 133.129 123.096 133.695C124.066 135.253 124.514 137.079 124.374 138.908C124.51 140.831 124.046 142.748 123.046 144.397C122.533 145.018 121.878 145.506 121.136 145.82C120.394 146.134 119.588 146.265 118.784 146.201L118.083 146.276ZM118.083 135.5V142.843H118.885C119.18 142.857 119.473 142.78 119.724 142.623C119.974 142.467 120.172 142.237 120.289 141.966C120.602 141.056 120.738 140.095 120.69 139.134C120.714 138.198 120.543 137.268 120.188 136.402C120.071 136.139 119.876 135.919 119.629 135.771C119.382 135.624 119.096 135.555 118.81 135.575L118.083 135.5Z" fill="white"/>
<path d="M129.938 153.419H125.602V132.066H129.311V139.434H130.64C131.325 139.379 132.014 139.486 132.65 139.747C133.286 140.009 133.851 140.417 134.3 140.938C135.222 142.539 135.625 144.387 135.453 146.226C135.598 148.127 135.151 150.027 134.174 151.665C133.667 152.283 133.015 152.766 132.276 153.072C131.537 153.378 130.734 153.497 129.938 153.419ZM129.236 142.868V150.011H130.013C130.312 150.02 130.605 149.932 130.849 149.76C131.093 149.588 131.275 149.342 131.367 149.058C131.658 148.161 131.785 147.219 131.743 146.276C131.776 145.423 131.64 144.571 131.342 143.77C131.221 143.512 131.024 143.298 130.778 143.154C130.531 143.011 130.247 142.946 129.963 142.968L129.236 142.868Z" fill="white"/>
<path d="M145.379 149.96V153.419H136.73V132.066H145.379V135.55H140.365V140.788H144.627V144.096H140.465V149.96H145.379Z" fill="white"/>
<path d="M115.502 198.706C161.16 198.706 198.173 161.7 198.173 116.051C198.173 70.4025 161.16 33.3968 115.502 33.3968C69.8449 33.3968 32.832 70.4025 32.832 116.051C32.832 161.7 69.8449 198.706 115.502 198.706Z" stroke="white" stroke-width="2" stroke-miterlimit="10"/>
<path d="M114.848 74.8616C114.848 74.8364 114.848 74.8112 114.822 74.786C113.998 72.0154 113.121 69.1188 111.266 66.8015C109.436 64.5094 106.317 62.6959 103.251 63.1997C102.864 63.2752 102.452 63.376 102.22 63.7034C102.065 63.9301 102.014 64.2072 102.014 64.4842C101.885 66.5244 102.684 68.5898 104.127 70.0759C106.988 72.9725 111.807 73.2496 114.719 76.0706C115.054 75.7935 114.977 75.2898 114.848 74.8616Z" fill="white"/>
<path d="M130.998 60.4051C131.084 60.7 131.124 61.0167 131.142 61.288C131.307 64.3159 130.194 67.4811 127.87 69.4072C125.604 71.2779 122.535 71.826 119.884 73.0695C118.678 73.648 117.56 74.3522 116.53 75.182C116.175 75.4922 115.338 76.3138 114.799 76.1244C114.193 75.9113 114.267 74.7837 114.331 74.3332C114.691 71.6976 115.905 69.2679 117.285 67.0102C118.956 64.2493 121.055 61.5632 124.023 60.2797C125.671 59.5729 127.493 59.3431 129.312 59.2825C129.639 59.2653 129.978 59.2709 130.303 59.4229C130.661 59.6433 130.881 59.9855 130.998 60.4051Z" fill="white"/>
</g>
</g>
</svg>
