<svg width="147" height="147" viewBox="0 0 147 147" fill="none" xmlns="http://www.w3.org/2000/svg">
<g opacity="0.28">
<g clip-path="url(#clip0_264_2902)">
<path d="M50.1797 3.73933L56.3255 1.96222L56.5662 2.81375L53.956 3.57272L55.8627 10.1998L54.9557 10.459L53.049 3.83188L50.4388 4.59086L50.1982 3.73933H50.1797Z" fill="white"/>
<path d="M60.956 0.981104C63.1774 0.592362 65.1396 1.90668 65.5468 4.23913C65.9356 6.51605 64.5472 8.45976 62.3258 8.8485C60.1044 9.23724 58.1422 7.92292 57.735 5.59047C57.3462 3.36909 58.6791 1.36985 60.956 0.981104ZM62.1592 7.97846C63.8993 7.68227 64.8434 6.14582 64.5472 4.40574C64.2325 2.62863 62.7331 1.57347 61.1041 1.85115C59.438 2.14733 58.4014 3.62825 58.7161 5.42387C59.0123 7.16395 60.5302 8.25613 62.1592 7.97846Z" fill="white"/>
<path d="M67.125 0.259161L71.5307 0L71.5863 0.888553L68.1246 1.07367L68.2542 3.31356C68.6429 3.23952 69.1428 3.20249 69.4389 3.18398C71.179 3.09142 72.2157 3.92444 72.2897 5.31281C72.3823 6.92331 71.3086 7.84889 69.4389 7.95995C68.6429 7.99698 68.0321 7.99698 67.5693 8.01549L67.125 0.24065V0.259161ZM68.2912 4.22063L68.4578 7.08991C68.8096 7.08991 69.1428 7.08991 69.5315 7.08991C70.8088 7.01587 71.4012 6.40499 71.3456 5.4609C71.2901 4.59086 70.6792 4.03551 69.4389 4.09105C69.1428 4.09105 68.717 4.14658 68.3097 4.22063H68.2912Z" fill="white"/>
<path d="M77.7847 -4.74509e-06C80.0431 0.129576 81.6536 1.85115 81.524 4.22062C81.3944 6.53456 79.5988 8.12655 77.3404 7.99697C75.082 7.86739 73.4715 6.14582 73.601 3.77635C73.7306 1.51794 75.4707 -0.129585 77.7847 -4.74509e-06ZM77.3959 7.10842C79.173 7.20098 80.4318 5.92368 80.5244 4.16509C80.6169 2.35096 79.3952 0.981106 77.7291 0.888548C76.0446 0.795991 74.6932 2.01775 74.5822 3.83188C74.4896 5.59047 75.7114 7.01586 77.3774 7.10842H77.3959Z" fill="white"/>
<path d="M88.2234 2.35097L85.4467 1.85116L85.0579 3.27655C83.7436 8.05252 82.5959 8.49679 81.4297 8.12656L81.6148 7.20099C82.1516 7.34908 83.1142 7.23801 84.3545 2.33246L84.7432 0.814514L89.3156 1.62902L87.9457 9.27428L87.0202 9.10768L88.2234 2.33246V2.35097Z" fill="white"/>
<path d="M92.148 5.34983C92.5553 5.44239 92.9625 5.53495 93.2032 5.60899C95.1284 6.16434 95.7578 7.33056 95.3505 8.73744C94.8877 10.3109 93.5179 10.8848 91.6112 10.3294C90.9633 10.1443 90.2969 9.92218 89.8711 9.7926L92.0555 2.31394L92.9625 2.5731L92.148 5.34983ZM91.8888 6.21987L91.0188 9.18172C91.2965 9.27427 91.6112 9.38534 91.9629 9.49641C93.1847 9.84813 94.0732 9.55195 94.3879 8.47828C94.6656 7.51568 94.1102 6.79373 92.8885 6.44201C92.6478 6.36797 92.2776 6.29392 91.8888 6.21987Z" fill="white"/>
<path d="M101.423 13.0136C100.738 13.3098 99.7199 13.2728 98.8313 12.9025C96.6655 12.0325 95.7584 9.9777 96.647 7.7193C97.48 5.64601 99.4792 4.53532 101.738 5.44238C102.663 5.81261 103.311 6.36796 103.663 7.01586L102.996 7.51567C102.663 6.97884 102.182 6.57158 101.423 6.25689C99.8495 5.6275 98.276 6.36796 97.5911 8.07102C96.9062 9.79259 97.5911 11.4216 99.2571 12.088C99.942 12.3657 100.701 12.3842 101.367 12.1806L101.46 12.9766L101.423 13.0136Z" fill="white"/>
<path d="M105.811 7.40461L106.644 7.84889L102.997 14.7167L102.164 14.2724L105.811 7.40461ZM106.07 11.6623L107.347 17.0121L106.274 16.4382L105.07 11.218L109.828 9.53343L110.846 10.0703L106.07 11.6808V11.6623Z" fill="white"/>
<path d="M115.03 12.6619C116.9 13.9392 117.381 16.2531 116.048 18.1968C114.753 20.1035 112.383 20.5293 110.513 19.2705C108.644 17.9932 108.162 15.6793 109.495 13.7355C110.773 11.8659 113.124 11.3661 115.03 12.6619ZM111.013 18.53C112.476 19.5297 114.234 19.0854 115.215 17.6415C116.233 16.142 115.9 14.3464 114.512 13.4023C113.124 12.4583 111.328 12.81 110.31 14.2909C109.31 15.7533 109.625 17.5859 111.013 18.53Z" fill="white"/>
<path d="M119.931 16.4382L123.263 19.289L122.689 19.9554L120.079 17.7155L118.45 19.6222L120.801 21.64L120.227 22.3064L117.876 20.2886L116.191 22.2509L118.894 24.5648L118.32 25.2312L114.914 22.3064L119.968 16.4197L119.931 16.4382Z" fill="white"/>
<path d="M126.952 22.8247L127.581 23.5467L126.452 28.3597L131.302 27.8969L131.895 28.5818L125.989 33.6354L125.379 32.9135L130.155 28.8224L125.416 29.2482L125.323 29.1371L126.415 24.5278L121.658 28.6003L121.047 27.8784L126.952 22.8247Z" fill="white"/>
<path d="M135.541 33.728C136.763 35.6347 136.318 37.9486 134.319 39.2259C132.375 40.4847 130.024 39.9479 128.803 38.0597C127.581 36.1715 128.025 33.8391 130.024 32.5618C131.931 31.34 134.282 31.7843 135.541 33.728ZM129.562 37.5784C130.524 39.0778 132.301 39.337 133.782 38.3929C135.3 37.4118 135.689 35.6162 134.8 34.2093C133.893 32.7839 132.098 32.4137 130.58 33.3948C129.099 34.3574 128.673 36.1715 129.562 37.5784Z" fill="white"/>
<path d="M139.78 43.5576L138.539 41.0215L137.169 41.5399C132.523 43.2985 131.486 42.632 131.098 41.4658L131.949 41.0586C132.134 41.5769 132.801 42.2988 137.503 40.4107L138.947 39.8368L140.983 44.0204L133.985 47.4265L133.578 46.575L139.78 43.5576Z" fill="white"/>
<path d="M143.295 49.8515C144.017 51.9804 143.017 54.1277 140.778 54.8867C138.593 55.6271 136.446 54.5535 135.724 52.4246C135.002 50.2958 136.002 48.1485 138.241 47.3895C140.37 46.6675 142.555 47.6672 143.295 49.8515ZM136.575 52.1284C137.149 53.813 138.815 54.4979 140.463 53.9426C142.166 53.3687 142.98 51.7212 142.462 50.1477C141.925 48.5557 140.278 47.7597 138.575 48.3336C136.909 48.9074 136.057 50.555 136.575 52.1284Z" fill="white"/>
<path d="M144.995 55.8493L145.18 56.7748L137.572 58.3853L137.387 57.4598L144.995 55.8493ZM141.867 58.7741L138.59 63.1983L138.349 62.0136L141.589 57.7374L145.939 60.3105L146.18 61.4212L141.885 58.7741H141.867Z" fill="white"/>
<path d="M146.85 66.3268C147.073 68.5667 145.61 70.4363 143.259 70.6585C140.964 70.8806 139.113 69.3442 138.909 67.1043C138.687 64.8644 140.149 62.9947 142.5 62.7726C144.74 62.5504 146.628 64.0314 146.85 66.3268ZM139.779 67.0117C139.946 68.7703 141.408 69.8255 143.167 69.6589C144.962 69.4923 146.128 68.0669 145.98 66.4008C145.814 64.7163 144.407 63.5686 142.593 63.7537C140.834 63.9203 139.631 65.3457 139.779 67.0117Z" fill="white"/>
<path d="M146.39 84.0978L145.205 90.3733L144.335 90.2066L144.835 87.541L138.078 86.2637L138.245 85.3381L145.001 86.6154L145.501 83.9498L146.371 84.1164L146.39 84.0978Z" fill="white"/>
<path d="M144.019 94.9456C143.371 97.0929 141.317 98.2592 139.04 97.5742C136.837 96.9078 135.708 94.779 136.374 92.6317C137.022 90.4658 139.077 89.3181 141.354 90.003C143.519 90.6509 144.704 92.7427 144.019 94.9456ZM137.226 92.8908C136.707 94.5939 137.67 96.1118 139.336 96.6302C141.076 97.1485 142.686 96.2969 143.168 94.705C143.649 93.0944 142.779 91.4839 141.057 90.9656C139.373 90.4473 137.707 91.2988 137.226 92.8908Z" fill="white"/>
<path d="M141.852 100.832L140.093 104.868L139.279 104.516L140.667 101.351L138.631 100.462C138.52 100.832 138.335 101.295 138.224 101.573C137.52 103.165 136.317 103.702 135.04 103.146C133.559 102.498 133.225 101.128 133.966 99.4254C134.281 98.7034 134.577 98.1481 134.743 97.7408L141.87 100.851L141.852 100.832ZM137.798 100.092L135.169 98.9441C135.003 99.2588 134.854 99.555 134.706 99.9067C134.188 101.073 134.484 101.869 135.336 102.258C136.132 102.609 136.909 102.313 137.409 101.165C137.52 100.888 137.668 100.499 137.798 100.11V100.092Z" fill="white"/>
<path d="M137.264 110.44C136.135 112.383 133.858 113.05 131.803 111.847C129.804 110.68 129.211 108.348 130.341 106.404C131.47 104.461 133.747 103.794 135.801 104.997C137.745 106.127 138.43 108.44 137.264 110.44ZM131.118 106.867C130.229 108.403 130.803 110.107 132.321 110.995C133.895 111.902 135.672 111.439 136.505 109.995C137.356 108.533 136.875 106.774 135.302 105.867C133.784 104.979 131.951 105.423 131.118 106.867Z" fill="white"/>
<path d="M130.451 118.696L132.154 116.437L131.062 115.456C127.396 112.106 127.507 110.903 128.377 110.014L129.118 110.588C128.748 110.995 128.396 111.902 132.228 115.234L133.394 116.252L130.58 119.973L124.379 115.29L124.953 114.531L130.451 118.677V118.696Z" fill="white"/>
<path d="M126.01 120.825C125.75 121.158 125.473 121.473 125.306 121.658C123.936 123.12 122.622 123.157 121.548 122.158C120.364 121.047 120.475 119.566 121.826 118.104C122.289 117.622 122.77 117.122 123.085 116.789L128.768 122.102L128.12 122.787L126.01 120.806V120.825ZM125.362 120.214L123.103 118.104C122.881 118.307 122.64 118.548 122.4 118.807C121.53 119.733 121.4 120.658 122.215 121.417C122.955 122.102 123.844 121.917 124.695 121.01C124.862 120.825 125.121 120.529 125.343 120.214H125.362Z" fill="white"/>
<path d="M114.951 125.638C114.988 124.897 115.488 124.009 116.228 123.379C117.987 121.843 120.227 121.972 121.819 123.787C123.281 125.453 123.374 127.73 121.541 129.34C120.801 130.006 120.005 130.321 119.264 130.34L119.116 129.525C119.746 129.47 120.338 129.229 120.93 128.692C122.189 127.581 122.263 125.841 121.041 124.453C119.82 123.065 118.061 122.935 116.71 124.12C116.154 124.601 115.784 125.267 115.673 125.952L114.914 125.675L114.951 125.638Z" fill="white"/>
<path d="M114.08 130.395L108.73 129.136L109.712 128.433L114.932 129.71L114.302 134.708L113.377 135.375L114.099 130.395H114.08ZM118.005 132.098L117.227 132.635L112.747 126.286L113.525 125.749L118.005 132.098Z" fill="white"/>
<path d="M109.164 137.948C107.183 139.04 104.906 138.429 103.758 136.374C102.648 134.357 103.314 132.043 105.295 130.969C107.276 129.877 109.552 130.488 110.7 132.542C111.792 134.523 111.181 136.837 109.164 137.948ZM105.721 131.728C104.166 132.58 103.777 134.338 104.628 135.875C105.498 137.467 107.276 137.966 108.719 137.17C110.2 136.356 110.682 134.597 109.812 133.024C108.96 131.487 107.164 130.932 105.721 131.728Z" fill="white"/>
<path d="M103.554 140.651L99.4997 142.317L99.1665 141.502L102.35 140.188L101.388 137.874L98.5186 139.059L98.1854 138.244L101.055 137.059L100.055 134.653L96.7785 136.004L96.4453 135.19L100.592 133.468L103.554 140.651Z" fill="white"/>
<path d="M94.7364 144.001L93.8108 144.223L90.0345 141.039L88.2574 145.575L87.3873 145.778L85.5547 138.226L86.4803 138.003L87.9612 144.112L89.7198 139.706L89.8679 139.669L93.4776 142.724L91.9967 136.652L92.9223 136.43L94.7549 143.983L94.7364 144.001Z" fill="white"/>
<path d="M81.1172 146.722C78.8773 146.944 77.0076 145.501 76.767 143.15C76.5263 140.854 78.0628 139.003 80.3027 138.762C82.5426 138.54 84.4122 139.984 84.6529 142.335C84.875 144.575 83.4126 146.482 81.1172 146.722ZM80.3952 139.651C78.6366 139.836 77.5815 141.298 77.7666 143.039C77.9517 144.834 79.3771 146 81.0246 145.834C82.7092 145.667 83.8384 144.242 83.6533 142.446C83.4681 140.688 82.0428 139.484 80.3952 139.651Z" fill="white"/>
<path d="M70.3806 146.056L73.1943 146.111L73.3609 144.649C73.8978 139.725 74.9529 139.096 76.1747 139.281L76.1377 140.225C75.5823 140.151 74.6382 140.428 74.1939 145.464L74.0644 147.018L69.418 146.944L69.5475 139.17H70.4916L70.3621 146.074L70.3806 146.056Z" fill="white"/>
<path d="M63.1937 146.371C60.9538 146.056 59.4914 144.205 59.8246 141.854C60.1393 139.577 62.083 138.133 64.3044 138.448C66.5257 138.762 68.0067 140.614 67.6735 142.964C67.3588 145.186 65.4706 146.685 63.1937 146.371ZM64.1933 139.336C62.4347 139.096 61.0648 140.262 60.8242 142.002C60.565 143.798 61.6757 145.26 63.3232 145.501C64.9893 145.741 66.4332 144.631 66.6923 142.835C66.933 141.095 65.8408 139.577 64.1933 139.336Z" fill="white"/>
<path d="M55.9041 141.076L53.442 136.152L54.6082 136.467L56.9777 141.28L52.7201 144.001L51.6094 143.705L55.9041 141.058V141.076ZM57.1073 145.186L56.2002 144.945L58.1995 137.43L59.1065 137.67L57.1073 145.186Z" fill="white"/>
<path d="M46.903 142.094C44.8112 141.28 43.8116 139.133 44.6631 136.93C45.4961 134.782 47.7175 133.838 49.8093 134.653C51.9011 135.467 52.9007 137.615 52.0492 139.818C51.2347 141.909 49.0503 142.946 46.903 142.094ZM49.4946 135.486C47.8471 134.838 46.2366 135.671 45.6072 137.3C44.9408 138.984 45.6812 140.669 47.2362 141.28C48.8097 141.891 50.4757 141.15 51.1236 139.466C51.7715 137.818 51.0496 136.097 49.4946 135.486Z" fill="white"/>
<path d="M29.2092 132.172L24.2852 128.1L24.859 127.415L26.9508 129.155L31.338 123.842L32.06 124.453L27.6728 129.766L29.7646 131.506L29.1907 132.191L29.2092 132.172Z" fill="white"/>
<path d="M20.8375 124.823C19.264 123.213 19.2455 120.843 20.9485 119.196C22.6146 117.585 25.0026 117.641 26.576 119.251C28.1495 120.862 28.168 123.231 26.465 124.879C24.8545 126.452 22.448 126.471 20.8375 124.823ZM25.9281 119.862C24.6879 118.585 22.8923 118.677 21.6335 119.899C20.3377 121.158 20.3006 122.991 21.4669 124.194C22.6516 125.397 24.4657 125.416 25.7615 124.157C27.0203 122.935 27.0944 121.065 25.9281 119.862Z" fill="white"/>
<path d="M16.7662 120.158L14.082 116.678L14.7855 116.141L16.8958 118.881L18.6544 117.511C18.3767 117.233 18.062 116.845 17.8769 116.604C16.8217 115.216 16.9143 113.901 18.025 113.05C19.3023 112.069 20.6721 112.42 21.8013 113.901C22.2826 114.531 22.6344 115.049 22.912 115.401L16.7662 120.14V120.158ZM19.3578 116.956L21.6347 115.197C21.4496 114.92 21.246 114.623 21.0239 114.327C20.2464 113.309 19.4133 113.179 18.6544 113.753C17.9695 114.29 17.8584 115.105 18.6174 116.104C18.8025 116.345 19.0801 116.66 19.3578 116.956Z" fill="white"/>
<path d="M10.5306 111.476C9.36438 109.551 9.8827 107.237 11.919 106.015C13.8997 104.831 16.2322 105.423 17.3984 107.348C18.5646 109.274 18.0463 111.587 16.01 112.809C14.0848 113.975 11.7339 113.457 10.5306 111.476ZM16.6209 107.811C15.6953 106.293 13.9367 105.96 12.4188 106.867C10.8638 107.793 10.4195 109.588 11.2896 111.014C12.1596 112.457 13.9367 112.883 15.4917 111.958C17.0096 111.051 17.4909 109.236 16.6209 107.811Z" fill="white"/>
<path d="M6.56942 101.517L7.71713 104.09L9.10549 103.609C13.8074 101.998 14.807 102.702 15.1588 103.868L14.2887 104.238C14.1036 103.702 13.4742 102.961 8.71675 104.72L7.25434 105.257L5.34766 100.999L12.4376 97.8149L12.8263 98.6849L6.53239 101.499L6.56942 101.517Z" fill="white"/>
<path d="M6.85197 96.5931C6.68536 96.2044 6.53727 95.8156 6.46322 95.575C5.83383 93.6683 6.44471 92.5021 7.83308 92.0393C9.38805 91.5395 10.6283 92.3355 11.2577 94.2236C11.4613 94.853 11.665 95.538 11.7945 95.9637L4.38993 98.3702L4.09375 97.4632L6.83346 96.5746L6.85197 96.5931ZM7.7035 96.3154L10.6468 95.3528C10.5728 95.0567 10.4802 94.742 10.3692 94.4088C9.98041 93.187 9.23995 92.6317 8.16628 92.9834C7.20369 93.2981 6.94452 94.1681 7.33327 95.3528C7.40731 95.5935 7.5554 95.9452 7.72201 96.2969L7.7035 96.3154Z" fill="white"/>
<path d="M7.95313 84.6347C8.58252 85.0234 9.11936 85.8935 9.32298 86.8376C9.82279 89.1145 8.63806 91.0212 6.26858 91.558C4.08422 92.0393 2.04795 91.0212 1.52963 88.6332C1.30749 87.6521 1.41856 86.8005 1.75177 86.1526L2.54777 86.4303C2.2886 87.0042 2.23307 87.6335 2.39967 88.4295C2.7699 90.0771 4.26934 90.9841 6.06495 90.5769C7.87908 90.1696 8.84168 88.7072 8.45294 86.9486C8.28634 86.2267 7.8976 85.5788 7.34225 85.153L7.95313 84.6347Z" fill="white"/>
<path d="M4.21622 81.5247L7.91852 77.4522L8.0481 78.6555L4.40133 82.5984L0.328799 79.6181L0.199219 78.4889L4.21622 81.5433V81.5247ZM0.82861 84.1349L0.717541 83.1908L8.45536 82.3393L8.56643 83.2833L0.82861 84.1349Z" fill="white"/>
<path d="M0.00062525 73.7314C-0.0363978 71.473 1.57411 69.7514 3.94358 69.7144C6.25752 69.6774 7.96058 71.3619 7.9976 73.6203C8.03463 75.8787 6.42412 77.6003 4.05465 77.6373C1.79624 77.6743 0.0376483 76.0453 0.00062525 73.7314ZM7.10905 73.6203C7.09054 71.8432 5.70217 70.677 3.96209 70.6955C2.14796 70.7325 0.870667 72.0468 0.90769 73.7129C0.926201 75.3974 2.25903 76.6562 4.05465 76.6377C5.81324 76.6192 7.14607 75.2864 7.10905 73.6203Z" fill="white"/>
<path d="M0.316406 67.4375L0.797706 63.0688L1.68626 63.1613L1.31603 66.5859L3.81508 66.8636L4.14829 63.7722L5.03684 63.8647L4.70364 66.9562L7.29525 67.2338L7.68399 63.6981L8.57255 63.7907L8.07273 68.2705L0.334918 67.419L0.316406 67.4375Z" fill="white"/>
<path d="M1.625 58.0336L1.86565 57.108L6.47502 55.3124L3.34657 51.5731L3.58722 50.7031L11.1029 52.7208L10.8622 53.6279L4.79047 51.9989L7.80785 55.6641L7.77082 55.8122L3.34657 57.5153L9.38133 59.1443L9.14068 60.0514L1.625 58.0336Z" fill="white"/>
<path d="M5.83005 44.7423C6.7186 42.6691 8.88445 41.725 11.0688 42.6505C13.1976 43.5576 14.0862 45.7975 13.1976 47.8708C12.3091 49.9441 10.1432 50.8882 7.95887 49.9626C5.88558 49.074 4.92298 46.8712 5.83005 44.7423ZM12.3831 47.5191C13.0866 45.8901 12.2906 44.261 10.6801 43.5761C9.01403 42.8727 7.31097 43.5576 6.66307 45.0941C5.99665 46.649 6.70009 48.3336 8.36613 49.037C9.99514 49.7219 11.7352 49.0555 12.3831 47.5191Z" fill="white"/>
<path d="M11.5672 35.6902L10.1603 38.1337L11.3635 38.9853C15.4176 41.836 15.4546 43.0578 14.7141 44.0389L13.8996 43.5576C14.2328 43.0948 14.455 42.1507 10.2528 39.337L8.95703 38.4669L11.271 34.4314L18.0092 38.3003L17.5464 39.1148L11.5672 35.6902Z" fill="white"/>
<path d="M14.7483 29.2852C16.0996 27.4896 18.4321 27.1009 20.3203 28.5263C22.1714 29.9146 22.4861 32.2841 21.1348 34.0982C19.7834 35.9123 17.451 36.2826 15.5628 34.8572C13.7672 33.5059 13.3599 31.1364 14.7483 29.2852ZM20.4313 33.5429C21.505 32.1175 21.1348 30.3589 19.7279 29.3037C18.284 28.2116 16.4699 28.4707 15.4703 29.8035C14.4521 31.1549 14.7298 32.9505 16.1737 34.0427C17.5806 35.0978 19.4317 34.8757 20.4313 33.5429Z" fill="white"/>
<path d="M18.7695 24.4907L19.4174 23.8058L25.0264 29.1927L24.3785 29.8776L18.7695 24.4907ZM22.9531 25.4163L28.4511 25.6385L27.618 26.5085L22.2497 26.2493L21.9165 21.2142L22.7125 20.3812L22.9531 25.4163Z" fill="white"/>
<path d="M26.3362 17.0676C28.0578 15.6237 30.4273 15.7718 31.9452 17.5674C33.4261 19.3445 33.204 21.7325 31.4824 23.1764C29.7608 24.6203 27.3914 24.4722 25.8734 22.6766C24.4295 20.955 24.5591 18.5485 26.3362 17.0676ZM30.9086 22.51C32.2599 21.3623 32.3154 19.5667 31.1862 18.2153C30.02 16.827 28.1874 16.6789 26.9101 17.734C25.6143 18.8262 25.4847 20.6403 26.6324 22.0287C27.7616 23.38 29.6313 23.5652 30.9086 22.51Z" fill="white"/>
</g>
<path d="M73.848 109.78C73.848 109.755 73.848 109.731 73.8222 109.707C72.9975 107.026 72.1213 104.223 70.2657 101.981C68.4359 99.7637 65.3175 98.009 62.2506 98.4964C61.864 98.5695 61.4517 98.667 61.2197 98.9838C61.0651 99.2031 61.0135 99.4712 61.0135 99.7393C60.8847 101.713 61.6836 103.712 63.1268 105.149C65.9875 107.952 70.8069 108.22 73.7191 110.949C74.0542 110.681 73.9768 110.194 73.848 109.78Z" fill="white"/>
<path d="M89.9982 95.7926C90.0837 96.078 90.1237 96.3844 90.1419 96.6468C90.3068 99.5765 89.1937 102.639 86.8702 104.502C84.6041 106.312 81.5353 106.843 78.8843 108.046C77.678 108.606 76.56 109.287 75.5303 110.09C75.1752 110.39 74.3376 111.185 73.7987 111.002C73.1925 110.795 73.2674 109.704 73.3312 109.268C73.6905 106.718 74.9045 104.368 76.285 102.183C77.9561 99.512 80.0549 96.9131 83.0227 95.6713C84.6714 94.9875 86.493 94.7651 88.3117 94.7065C88.6395 94.6899 88.9781 94.6952 89.303 94.8423C89.6607 95.0555 89.8809 95.3867 89.9982 95.7926Z" fill="white"/>
<path d="M33.2492 56.1684V76.1019C33.2492 76.9635 33.2856 77.4793 33.3584 77.6492C33.4676 77.9526 33.6618 78.1711 33.9409 78.3046C34.2201 78.4259 34.7358 78.4866 35.4883 78.4866H38.0551V82H22.3631V78.4866H24.9481C25.8583 78.4866 26.4409 78.432 26.6957 78.3228C26.9506 78.2014 27.1387 78.0133 27.26 77.7585C27.3935 77.4915 27.4603 76.9393 27.4603 76.1019V61.8845H22.3631V58.3529C23.8195 58.2073 24.936 58.0556 25.7127 57.8978C26.8778 57.6672 28.1156 57.3517 29.4263 56.9512C30.1545 56.7327 30.8341 56.4718 31.4652 56.1684H33.2492ZM46.5236 82.4369V78.8871C48.8537 78.79 50.7105 78.5716 52.094 78.2318C53.4775 77.8798 54.6305 77.4004 55.5528 76.7936C56.4873 76.1868 57.2397 75.4708 57.8101 74.6456C58.3805 73.8082 58.781 72.8494 59.0116 71.7693C57.9436 72.5217 56.9303 73.0557 55.9715 73.3713C55.0128 73.6747 53.9812 73.8264 52.8768 73.8264C51.105 73.8264 49.5151 73.4623 48.1073 72.7341C46.7117 71.9938 45.6498 71.0108 44.9216 69.7851C44.1935 68.5472 43.8294 67.1091 43.8294 65.4707C43.8294 62.7644 44.7821 60.5374 46.6874 58.7898C48.5928 57.0422 51.1778 56.1684 54.4424 56.1684C57.8041 56.1684 60.4315 57.0665 62.3247 58.8626C64.5456 60.9622 65.6561 63.8505 65.6561 67.5278C65.6561 70.0035 65.2799 72.1152 64.5274 73.8628C63.775 75.6104 62.5978 77.1577 60.9958 78.5048C59.406 79.8398 57.531 80.8289 55.3708 81.4721C53.2227 82.1032 50.2736 82.4248 46.5236 82.4369ZM54.5152 69.6758C55.4011 69.6758 56.1839 69.4817 56.8635 69.0933C57.5431 68.705 58.071 68.1406 58.4473 67.4003C58.8235 66.66 59.0116 65.8166 59.0116 64.87C59.0116 63.4865 58.5929 62.3578 57.7555 61.484C56.9303 60.6102 55.8866 60.1733 54.6244 60.1733C53.338 60.1733 52.27 60.6102 51.4205 61.484C50.5831 62.3578 50.1644 63.5047 50.1644 64.9246C50.1644 66.3566 50.571 67.5096 51.3841 68.3834C52.2093 69.245 53.253 69.6758 54.5152 69.6758ZM72.1768 55.8225H74.5797L74.8346 56.6053H91.819V60.1187C90.2049 61.6843 88.9002 63.1588 87.9051 64.5423C86.9221 65.9258 86.0058 67.546 85.1563 69.4028C84.3189 71.2475 83.6939 72.9829 83.2813 74.6091C82.8686 76.2232 82.4985 78.6869 82.1708 82H75.6355C75.9268 79.0024 76.4183 76.5084 77.1101 74.5181C77.8018 72.5157 78.9123 70.3555 80.4414 68.0375C81.9706 65.7074 83.5847 63.7231 85.2837 62.0847H77.0009C75.945 62.0847 75.2533 62.1454 74.9256 62.2668C74.5979 62.3881 74.337 62.5823 74.1428 62.8493C73.9486 63.1163 73.7302 63.717 73.4875 64.6515L73.1052 66.126L69.6282 65.3069L72.1768 55.8225ZM99.1589 66.6722L95.4816 66.9998C95.3481 66.3688 95.2814 65.768 95.2814 65.1976C95.2814 63.4501 95.694 61.933 96.5193 60.6466C97.3445 59.3481 98.6127 58.2801 100.324 57.4427C102.047 56.5932 103.959 56.1684 106.058 56.1684C107.988 56.1684 109.729 56.5386 111.283 57.2789C112.848 58.007 114.026 58.9536 114.814 60.1187C115.603 61.2838 115.998 62.5095 115.998 63.7959C115.998 65.0945 115.718 66.3081 115.16 67.4367C114.541 68.6989 113.528 69.9186 112.12 71.0958C110.725 72.273 107.903 74.1601 103.655 76.7572H109.772C110.767 76.7572 111.398 76.7087 111.665 76.6116C111.932 76.5024 112.163 76.2961 112.357 75.9927C112.551 75.6893 112.715 75.1674 112.848 74.4271L112.994 73.5897H116.526L114.869 82.892H112.466L112.248 82H95.4816V78.4866C97.9452 76.8847 101.07 74.5181 104.857 71.387C106.798 69.7851 108.091 68.4016 108.734 67.2365C109.208 66.387 109.444 65.495 109.444 64.5605C109.444 63.4804 108.995 62.5702 108.097 61.8299C107.211 61.0775 106.022 60.7012 104.529 60.7012C103.425 60.7012 102.466 60.9075 101.653 61.3202C100.84 61.7207 100.203 62.2971 99.7414 63.0496C99.2802 63.802 99.0496 64.5969 99.0496 65.4343C99.0496 65.7377 99.086 66.1503 99.1589 66.6722ZM119.885 71.1016H128.58L129.814 74.5781L128.4 75.0703C128.01 74.2161 127.58 73.638 127.111 73.3359C126.643 73.0339 125.9 72.8828 124.885 72.8828H123.854V79.6484C123.854 79.9974 123.906 80.2266 124.01 80.3359C124.119 80.4401 124.367 80.4922 124.752 80.4922H125.197V82H119.885V80.4922H120.236C120.669 80.4922 120.934 80.4297 121.033 80.3047C121.137 80.1745 121.189 79.9818 121.189 79.7266V73.4609C121.189 73.0703 121.122 72.8307 120.986 72.7422C120.851 72.6536 120.601 72.6094 120.236 72.6094H119.885V71.1016Z" fill="white"/>
<path d="M58.5698 32.4069H65.8863L66.925 35.3322L65.7351 35.7463C65.4064 35.0276 65.0449 34.5412 64.6505 34.287C64.256 34.0328 63.6315 33.9057 62.777 33.9057H61.9092V39.5985C61.9092 39.8921 61.9531 40.085 62.0407 40.177C62.1327 40.2646 62.3409 40.3085 62.6652 40.3085H63.0399V41.5772H58.5698V40.3085H58.8656C59.2294 40.3085 59.4529 40.2559 59.5361 40.1507C59.6238 40.0411 59.6676 39.879 59.6676 39.6642V34.3921C59.6676 34.0635 59.6106 33.8619 59.4967 33.7874C59.3827 33.7129 59.1724 33.6756 58.8656 33.6756H58.5698V32.4069ZM67.8729 32.4069H72.0209L73.6117 37.988L75.2617 32.4069H79.482V33.6756H79.0284C78.783 33.6756 78.6121 33.7282 78.5157 33.8334C78.4237 33.9342 78.3777 34.127 78.3777 34.4119V39.6182C78.3777 39.8461 78.3908 39.9886 78.4171 40.0455C78.4565 40.1332 78.5113 40.1945 78.5814 40.2296C78.6779 40.2822 78.8049 40.3085 78.9627 40.3085H79.482V41.5772H75.0711V40.3085H75.4129C75.6627 40.3085 75.8314 40.2888 75.9191 40.2493C76.0067 40.2099 76.0703 40.1507 76.1097 40.0718C76.1536 39.9886 76.1755 39.8374 76.1755 39.6182V33.978L73.9404 41.5772H72.6717L70.5089 34.2212V39.7957C70.5089 39.9228 70.5309 40.0214 70.5747 40.0915C70.6229 40.1617 70.6886 40.2164 70.7719 40.2559C70.8595 40.2909 70.9976 40.3085 71.186 40.3085H71.6265V41.5772H67.8729V40.3085H68.241C68.4733 40.3085 68.6311 40.2888 68.7143 40.2493C68.802 40.2055 68.8655 40.1397 68.905 40.0521C68.9488 39.9601 68.9707 39.7935 68.9707 39.5525V34.4119C68.9707 34.1752 68.9554 34.0218 68.9247 33.9517C68.8852 33.8553 68.8261 33.7852 68.7472 33.7414C68.6683 33.6975 68.5434 33.6756 68.3725 33.6756H67.8729V32.4069ZM81.8236 32.4069H82.7505L82.9674 32.8013C83.6555 32.4332 84.4224 32.2491 85.2682 32.2491C86.2543 32.2491 87.0738 32.4573 87.7268 32.8736C88.3797 33.2856 88.7062 33.8619 88.7062 34.6025C88.7062 35.6236 88.1321 36.3336 86.9839 36.7324C88.36 37.0085 89.0481 37.7447 89.0481 38.9411C89.0481 39.7913 88.6712 40.4706 87.9174 40.979C87.1636 41.4874 86.2433 41.7415 85.1564 41.7415C83.925 41.7415 82.9718 41.4983 82.2969 41.0119C81.6264 40.521 81.0545 39.8593 80.5812 39.0266L81.6001 38.2706C82.4897 39.5722 83.5766 40.223 84.8606 40.223C85.4961 40.223 85.9562 40.0828 86.2411 39.8023C86.526 39.5218 86.6684 39.1822 86.6684 38.7834C86.6684 38.367 86.5347 38.0449 86.2674 37.817C86.0001 37.5848 85.4917 37.4686 84.7423 37.4686H83.5525V36.121H84.5582C85.3076 36.121 85.816 36.018 86.0833 35.8121C86.3507 35.6017 86.4843 35.3147 86.4843 34.9509C86.4843 34.5258 86.3244 34.2125 86.0045 34.0109C85.6889 33.8049 85.3076 33.7019 84.8606 33.7019C84.2076 33.7019 83.6664 33.9167 83.2369 34.3461C82.8118 34.7712 82.4459 35.341 82.1391 36.0553L80.9164 35.7003L81.8236 32.4069Z" fill="white"/>
</g>
<defs>
<clipPath id="clip0_264_2902">
<rect width="146.87" height="147" fill="white"/>
</clipPath>
</defs>
</svg>
