<svg width="21" height="9" viewBox="0 0 21 9" fill="none" xmlns="http://www.w3.org/2000/svg">
<path d="M12.1183 8.90409H21C21 6.4699 19.0054 4.48511 16.5591 4.48511C14.1129 4.48511 12.1183 6.4699 12.1183 8.90409Z" fill="#152126"/>
<path d="M17.7617 8.90317H-0.00172234C-0.00172234 4.01701 3.98752 0.0668945 8.88 0.0668945C13.7913 0.0668945 17.7617 4.01701 17.7617 8.90317Z" fill="#FF927E"/>
<path d="M8.76869 1.67676C9.38966 1.67676 9.87891 2.18232 9.87891 2.7815C9.87891 3.38069 9.37084 3.88625 8.76869 3.88625C8.14772 3.88625 7.65848 3.38069 7.65848 2.7815C7.65848 2.18232 8.16654 1.67676 8.76869 1.67676Z" fill="#152126"/>
<path d="M4.76088 5.08398C5.38185 5.08398 5.87109 5.58955 5.87109 6.18873C5.87109 6.78791 5.36303 7.29347 4.76088 7.29347C4.13991 7.29347 3.65066 6.78791 3.65066 6.18873C3.65066 5.58955 4.13991 5.08398 4.76088 5.08398Z" fill="#152126"/>
<path d="M12.796 5.08398C13.417 5.08398 13.9062 5.58955 13.9062 6.18873C13.9062 6.78791 13.3982 7.29347 12.796 7.29347C12.1751 7.29347 11.6858 6.78791 11.6858 6.18873C11.6858 5.58955 12.1939 5.08398 12.796 5.08398Z" fill="#152126"/>
</svg>
