<svg width="156" height="108" viewBox="0 0 156 108" fill="none" xmlns="http://www.w3.org/2000/svg">
<path d="M38.2539 17.7366C51.7415 20.9762 61.4046 19.2155 68.2763 15.6809C75.148 12.1463 84.2628 11.4505 95.444 17.2073" stroke="#97BA80" stroke-width="2" stroke-linecap="round"/>
<path d="M79.2719 12.7747C79.3461 9.13435 80.8459 5.25005 83.8502 3.00885C84.8962 2.23016 86.1328 1.66857 87.4476 1.69315C87.6598 1.69612 89.3161 1.62279 89.3553 1.7938C89.6945 3.28817 89.6891 4.59329 89.1933 6.05685C88.4959 8.1244 87.3095 10.1595 85.5736 11.5364C84.6705 12.2589 83.5942 12.7247 82.4488 12.8872C82.1758 12.9273 79.2669 13.0765 79.2719 12.7747Z" fill="#AFD08F"/>
<path d="M33.7431 16.6549C35.1327 12.0233 38.4333 7.58652 43.0746 5.78729C44.6899 5.16292 46.472 4.88415 48.1455 5.38322C48.416 5.46249 50.5615 5.95777 50.5508 6.19051C50.4532 8.22325 49.9822 9.89134 48.8272 11.5877C47.1995 13.9852 44.9577 16.1673 42.2468 17.3117C40.8342 17.915 39.2914 18.1282 37.768 17.9287C37.4045 17.883 33.6293 17.0393 33.7431 16.6549Z" fill="#AFD08F"/>
<path d="M64.3268 17.5744C64.3442 17.633 64.3694 17.686 64.4024 17.7335C66.3499 20.7474 69.5001 22.8919 72.9606 23.7203C74.9818 24.2022 77.7455 24.3677 79.3951 22.8246C80.1755 22.0906 79.2934 21.4651 78.6762 21.0176C75.6259 18.7723 71.9188 17.1433 68.1416 16.7537C67.0536 16.6419 65.1653 16.2663 64.4069 17.3101C64.3462 17.383 64.3098 17.4741 64.3146 17.5653L64.3268 17.5744Z" fill="#AFD08F"/>
<path d="M57.3287 19.3837C57.3971 19.3916 57.4631 19.389 57.5269 19.3757C61.5093 18.6915 65.1231 16.3771 67.5111 13.1595C68.9039 11.2794 70.2973 8.49036 69.4286 6.09975C69.0134 4.96694 67.9756 5.60396 67.2393 6.04527C63.5652 8.21145 60.2391 11.3305 58.1655 15.0701C57.5686 16.1474 56.3448 17.9369 57.0904 19.1839C57.1391 19.279 57.2173 19.357 57.3139 19.3923L57.3287 19.3837Z" fill="#AFD08F"/>
<path d="M91.7893 15.125C91.8736 14.9454 92.0743 14.8187 92.2657 14.7297C94.0923 13.8534 96.2742 13.9314 98.172 14.6067C100.07 15.2819 101.706 16.4917 103.189 17.8201C103.549 18.1485 104.418 18.8897 104.298 19.4689C104.202 19.9227 103.305 20.2657 102.911 20.4332C101.575 21.0001 100.036 21.0488 98.6441 20.7111C96.7508 20.2493 95.0918 19.1232 93.6663 17.8181C92.983 17.1909 92.3306 16.5052 91.8788 15.6928C91.8068 15.5563 91.7307 15.4073 91.7527 15.2546C91.7579 15.2044 91.7736 15.1647 91.7893 15.125Z" fill="#AFD08F"/>
<path d="M54.5481 31.4862C49.8927 31.1624 45.2182 30.1594 40.9021 28.1191C38.7172 27.1008 36.6906 25.7554 34.8973 24.1637C33.0575 22.5161 31.5386 20.5572 30.4156 18.3675L30.4096 18.3572C30.0188 17.591 30.3238 16.6537 31.098 16.2577C31.8721 15.8616 32.8115 16.1562 33.2188 16.9267C33.2308 16.9473 33.2489 16.9782 33.2565 17.0152C34.1159 18.9443 35.3206 20.6997 36.8123 22.205C38.3489 23.7394 40.0978 25.0395 42.0083 26.0659C45.8652 28.1806 50.2512 29.407 54.7271 29.9734C55.1465 30.0465 55.4181 30.4405 55.3511 30.8523C55.2705 31.2169 54.9315 31.4974 54.5481 31.4862Z" fill="#97BA80"/>
<path d="M50.2578 30.1258C50.2588 29.9182 50.3873 29.7407 50.5232 29.6049C51.8088 28.2808 53.8168 27.883 55.8183 28.1763C57.8198 28.4697 59.8089 29.3833 61.7088 30.4554C62.1731 30.7217 63.2708 31.3109 63.4058 31.9469C63.5095 32.4456 62.8409 33.004 62.5552 33.2669C61.583 34.1576 60.211 34.5472 58.8087 34.4979C56.9009 34.4284 54.9262 33.6078 53.0878 32.5477C52.2059 32.0377 51.3274 31.4594 50.5773 30.7037C50.4548 30.5759 50.3233 30.4358 50.2792 30.2702C50.2628 30.2162 50.2603 30.171 50.2578 30.1258Z" fill="#AFD08F"/>
<path d="M16.9766 38.1116C13.737 51.5993 15.4976 61.2623 19.0322 68.134C22.5669 75.0057 23.2626 84.1205 17.5058 95.3017" stroke="#97BA80" stroke-width="2" stroke-linecap="round"/>
<path d="M21.9407 79.1291C25.5811 79.2033 29.4654 80.7031 31.7066 83.7074C32.4853 84.7534 33.0469 85.99 33.0223 87.3047C33.0193 87.517 33.0927 89.1733 32.9217 89.2125C31.4273 89.5516 30.1222 89.5463 28.6586 89.0505C26.591 88.353 24.5559 87.1667 23.179 85.4308C22.4566 84.5276 21.9907 83.4514 21.8283 82.306C21.7881 82.033 21.6389 79.1241 21.9407 79.1291Z" fill="#AFD08F"/>
<path d="M21.5315 28.9438C20.9694 34.5645 18.1726 40.3871 13.2511 43.4839C11.5378 44.5596 9.55634 45.2761 7.52614 45.0765C7.1983 45.0458 4.62778 44.9556 4.58821 44.6864C4.24741 42.3337 4.41606 40.316 5.36272 38.1136C6.69536 35.0018 8.78019 32.0004 11.6339 30.0844C13.1194 29.078 14.841 28.4899 16.6324 28.3795C17.0594 28.3509 21.5764 28.4777 21.5315 28.9438Z" fill="#AFD08F"/>
<path d="M25.9145 23.3191C20.3161 24.0709 14.0047 22.6953 9.85459 18.6225C8.41214 17.2041 7.25717 15.4419 6.98226 13.4205C6.93634 13.0944 6.43011 10.5726 6.68295 10.4719C8.89322 9.59671 10.8953 9.29458 13.2569 9.70672C16.5923 10.2843 19.9943 11.6192 22.5178 13.9529C23.8402 15.1657 24.8101 16.7048 25.3315 18.4222C25.458 18.8311 26.3784 23.2551 25.9145 23.3191Z" fill="#AFD08F"/>
<path d="M18.3114 68.8022C18.2502 68.8024 18.1922 68.8118 18.1375 68.8303C14.6992 69.8574 11.7595 72.2824 9.99657 75.3733C8.96873 77.1791 8.03712 79.7863 9.05748 81.8015C9.54402 82.7561 10.3912 82.084 10.9934 81.6165C14.0021 79.3157 16.6026 76.2119 18.0327 72.6942C18.4443 71.6809 19.3328 69.973 18.5427 68.953C18.4896 68.8742 18.4124 68.8138 18.3235 68.793L18.3114 68.8022Z" fill="#AFD08F"/>
<path d="M14.6982 51.4003C14.6902 51.4687 14.6929 51.5348 14.7061 51.5985C15.3904 55.581 17.7047 59.1947 20.9223 61.5828C22.8024 62.9756 25.5915 64.369 27.9821 63.5002C29.1149 63.0851 28.4779 62.0473 28.0366 61.3109C25.8704 57.6369 22.7514 54.3107 19.0118 52.2371C17.9345 51.6402 16.1449 50.4164 14.898 51.1621C14.8028 51.2107 14.7249 51.2889 14.6896 51.3856L14.6982 51.4003Z" fill="#AFD08F"/>
<path d="M29.821 49.1442C29.8868 48.9866 30.0546 48.8702 30.2158 48.7865C31.753 47.9649 33.6313 47.9502 35.2879 48.4595C36.9444 48.9688 38.3961 49.9474 39.7202 51.0336C40.0424 51.3024 40.817 51.9069 40.7359 52.4093C40.6705 52.8029 39.9117 53.1313 39.5799 53.2901C38.4521 53.8274 37.1318 53.9269 35.9223 53.6888C34.2777 53.3629 32.8095 52.457 31.5353 51.3887C30.9245 50.8751 30.338 50.3102 29.9193 49.6288C29.8522 49.5142 29.7812 49.389 29.7945 49.2569C29.7971 49.2136 29.809 49.1789 29.821 49.1442Z" fill="#AFD08F"/>
<path d="M19.5266 91.6987C19.7523 91.8048 19.9115 92.057 20.0234 92.2975C21.1246 94.5931 21.0266 97.3351 20.178 99.7201C19.3294 102.105 17.809 104.161 16.1396 106.025C15.7269 106.478 14.7954 107.57 14.0674 107.419C13.4972 107.299 13.0661 106.171 12.8556 105.676C12.1432 103.996 12.0819 102.063 12.5064 100.313C13.0867 97.9341 14.502 95.8491 16.1421 94.0577C16.9304 93.1989 17.7921 92.379 18.8131 91.8113C18.9845 91.7207 19.1718 91.6251 19.3637 91.6528C19.4268 91.6594 19.4767 91.679 19.5266 91.6987Z" fill="#AFD08F"/>
<g clip-path="url(#clip0_308_12130)">
<path d="M43.5031 16.1348L42.9845 15.8803C42.7178 15.7455 42.5252 15.5209 42.4363 15.2365L42.14 14.1585C41.5028 11.8828 36.3613 15.476 35.4871 16.2246C33.7239 17.7667 32.7756 19.743 31.8125 21.8091C31.7977 21.839 31.7829 21.869 31.7681 21.9139L30.7161 23.6955C30.5086 24.0399 30.5086 24.4591 30.7013 24.8034L30.7309 24.8483C31.1013 25.4772 32.02 25.537 32.5237 24.9382L32.7164 24.7136C32.9238 24.4741 33.2053 24.3243 33.5165 24.2944C34.9389 24.1746 36.7466 24.3693 37.9319 23.441C38.9099 22.6774 39.9174 21.9438 40.8361 21.1354C41.977 20.1322 42.8956 18.9495 43.8587 17.7817C44.2736 17.2128 44.1106 16.4342 43.5031 16.1348Z" fill="#EEFBFF"/>
<path d="M44.6451 33.4421L44.571 32.8433C44.5414 32.5289 44.6155 32.2294 44.8081 31.9899L45.5045 31.1065C46.9862 29.2351 41.4595 26.7797 40.4223 26.4503C38.2886 25.7916 36.2143 26.091 34.0806 26.4503C34.051 26.4503 34.0065 26.4653 33.9769 26.4653L32.0062 26.5701C31.621 26.5851 31.2802 26.8396 31.1172 27.1989L31.1024 27.2438C30.7913 27.9475 31.2209 28.7709 31.9618 28.8757L32.2433 28.9057C32.5397 28.9506 32.8064 29.1153 32.9842 29.3698C33.8139 30.5526 34.5992 32.2594 35.9476 32.7684C37.0588 33.1876 38.1553 33.6517 39.2962 33.9961C40.689 34.4153 42.0966 34.55 43.5339 34.7147C44.1858 34.7447 44.734 34.1458 44.6451 33.4421Z" fill="#EEFBFF"/>
<path d="M14.7885 38.3978L15.3367 38.5924C15.6182 38.6823 15.8405 38.8919 15.9442 39.1763L16.3591 40.2094C17.2333 42.3803 21.9895 38.2331 22.7748 37.3947C24.3751 35.6729 25.1159 33.6068 25.8716 31.4509C25.8864 31.421 25.9012 31.376 25.916 31.3461L26.7606 29.4297C26.9236 29.0554 26.8939 28.6362 26.6569 28.3368L26.6272 28.3068C26.1827 27.7229 25.2641 27.7828 24.8344 28.4266L24.6714 28.6811C24.4936 28.9356 24.2269 29.1153 23.9157 29.1752C22.5081 29.4597 20.6856 29.4746 19.604 30.5226C18.715 31.391 17.7815 32.2294 16.9369 33.1427C15.9146 34.2806 15.0996 35.5382 14.2699 36.8108C13.8995 37.4097 14.1513 38.1732 14.7885 38.3978Z" fill="#EEFBFF"/>
<path d="M25.9749 8.72376L25.5008 9.09806C25.2637 9.27772 24.9674 9.36755 24.6858 9.30766L23.6338 9.11303C21.4113 8.69382 21.7965 15.0568 21.9891 16.1797C22.3744 18.5003 23.5449 20.252 24.7896 22.0636C24.8044 22.0935 24.834 22.1235 24.8488 22.1534L25.8119 23.9201C26.0045 24.2644 26.3453 24.4591 26.7306 24.4142H26.775C27.5011 24.3543 28.0048 23.5159 27.7529 22.7972L27.664 22.5128C27.5603 22.2283 27.59 21.8839 27.7233 21.5995C28.3456 20.237 29.4273 18.6351 29.2495 17.1379C29.1161 15.8952 29.0124 14.6376 28.7901 13.4249C28.5234 11.9277 28.0048 10.5503 27.5159 9.14297C27.264 8.48422 26.538 8.28958 25.9749 8.72376Z" fill="#EEFBFF"/>
<path d="M47.2522 22.7673L47.0003 23.3212C46.8669 23.6057 46.8521 23.9201 46.9558 24.2046L47.3559 25.2376C48.1856 27.4385 42.1403 28.2918 41.0439 28.3218C38.7917 28.3817 36.9099 27.5283 34.9689 26.615C34.9393 26.6 34.9096 26.5851 34.8652 26.5701L33.0131 25.9413C32.6575 25.8215 32.4056 25.4921 32.3611 25.1029V25.0579C32.287 24.3094 32.9538 23.6207 33.6798 23.7255L33.9613 23.7704C34.2577 23.8153 34.5688 23.7255 34.8059 23.5308C35.9616 22.6175 37.2507 21.2102 38.688 21.0755C39.8733 20.9707 41.0883 20.8209 42.2737 20.806C43.7406 20.791 45.1333 21.0305 46.541 21.2551C47.2077 21.4048 47.5485 22.1085 47.2522 22.7673Z" fill="#CEEEF7"/>
<path d="M41.386 40.6885L40.8081 40.7933C40.5118 40.8382 40.2599 41.0179 40.0821 41.2724L39.4598 42.2156C38.1411 44.2218 34.3331 39.4009 33.7404 38.4427C32.5254 36.4964 32.2291 34.3405 31.9476 32.1097C31.9476 32.0797 31.9327 32.0348 31.9327 32.0049L31.4882 30.0136C31.3993 29.6244 31.5327 29.2201 31.8142 28.9506L31.8438 28.9207C32.4069 28.4117 33.2959 28.6213 33.5774 29.31L33.696 29.5794C33.8145 29.8639 34.0368 30.0885 34.3331 30.1933C35.6518 30.6874 37.4447 31.0018 38.2892 32.1995C38.9856 33.1876 39.7265 34.1608 40.3636 35.1939C41.1341 36.4665 41.6675 37.8439 42.2157 39.2213C42.4676 39.865 42.0676 40.5687 41.386 40.6885Z" fill="#CEEEF7"/>
<path d="M22.5822 45.3297L22.2266 44.8506C22.0488 44.6111 21.782 44.4614 21.5005 44.4464L20.4337 44.3865C18.1667 44.2517 20.3744 38.2181 20.893 37.1701C21.9302 35.0291 23.5749 33.6218 25.2937 32.1845C25.3233 32.1546 25.3529 32.1396 25.3678 32.1097L26.805 30.6424C27.0865 30.358 27.4718 30.2532 27.8274 30.3879L27.8718 30.4029C28.5534 30.6424 28.7905 31.5557 28.3608 32.1995L28.183 32.454C28.0052 32.7085 27.9311 33.0379 27.9755 33.3523C28.183 34.8195 28.7608 36.6311 28.1682 38.0235C27.6792 39.1913 27.2199 40.3741 26.6568 41.4969C25.9604 42.8743 25.0714 44.0871 24.1972 45.3147C23.7527 45.8687 22.9822 45.8687 22.5822 45.3297Z" fill="#CEEEF7"/>
<path d="M10.6549 31.8851L10.8475 31.3012C10.9512 31.0018 10.9216 30.6873 10.7882 30.4328L10.2844 29.4447C9.23243 27.3636 15.174 25.8215 16.2557 25.6568C18.493 25.3424 20.4637 25.9712 22.4936 26.645C22.5233 26.6599 22.5529 26.6599 22.5973 26.6749L24.5087 27.0941C24.8792 27.169 25.1607 27.4684 25.2496 27.8577L25.2644 27.9026C25.4274 28.6362 24.8199 29.3848 24.079 29.3698L23.7975 29.3549C23.5012 29.3399 23.2048 29.4746 22.9678 29.6842C21.9158 30.7323 20.7749 32.2744 19.3524 32.5738C18.1671 32.8133 16.9817 33.0978 15.8112 33.2475C14.3591 33.4422 12.9367 33.3523 11.4994 33.2924C10.8327 33.2475 10.4178 32.5738 10.6549 31.8851Z" fill="#CEEEF7"/>
<path d="M15.8869 11.7331L16.4648 11.6882C16.7611 11.6582 17.0278 11.5085 17.2204 11.2839C17.2204 11.2839 17.9168 10.4006 17.9168 10.3856C19.3837 8.49918 22.7768 13.6644 23.2954 14.6675C24.3474 16.7187 24.4659 18.9046 24.5548 21.1653C24.5548 21.1952 24.5548 21.2401 24.5697 21.2701L24.866 23.2913C24.9253 23.6805 24.7623 24.0848 24.4511 24.3243L24.4215 24.3543C23.8288 24.8184 22.9546 24.5339 22.7324 23.8003L22.6434 23.5159C22.5545 23.2164 22.3471 22.9769 22.0656 22.8571C20.7913 22.2433 19.0281 21.7791 18.2873 20.5065C17.6798 19.4585 17.013 18.4105 16.4796 17.3325C15.8128 15.9851 15.3979 14.5777 14.9683 13.1404C14.7608 12.4667 15.2201 11.793 15.8869 11.7331Z" fill="#CEEEF7"/>
<path d="M34.1999 8.90344L34.5407 9.38253C34.7185 9.62208 34.9704 9.78677 35.2519 9.80174L36.3188 9.89157C38.571 10.0862 36.2299 16.0749 35.6965 17.108C34.6148 19.2339 32.9405 20.5964 31.1921 21.9888C31.1625 22.0187 31.1328 22.0337 31.1032 22.0636L29.6363 23.4859C29.3548 23.7704 28.9547 23.8602 28.5991 23.7105L28.5547 23.6955C27.8879 23.441 27.6657 22.5128 28.1102 21.8839L28.288 21.6444C28.4658 21.3899 28.5547 21.0605 28.525 20.7461C28.3472 19.2639 27.8138 17.4523 28.451 16.0599C28.9696 14.9071 29.4585 13.7243 30.0512 12.6164C30.7772 11.254 31.6959 10.0712 32.5997 8.85852C33.0294 8.31954 33.7999 8.33451 34.1999 8.90344Z" fill="#CEEEF7"/>
<path d="M30.6426 44.2667L31.1168 43.8774C31.3538 43.6828 31.6502 43.593 31.9317 43.6379L32.9837 43.8026C35.2211 44.1619 34.6728 37.8288 34.4654 36.691C34.0209 34.3853 32.8059 32.6636 31.5168 30.8969C31.502 30.867 31.4724 30.837 31.4575 30.8071L30.45 29.0704C30.2574 28.726 29.9018 28.5464 29.5165 28.5913H29.4721C28.746 28.6811 28.2719 29.5195 28.5238 30.2232L28.6275 30.5077C28.7312 30.7921 28.7164 31.1365 28.5979 31.4209C28.0052 32.7983 26.968 34.4303 27.1754 35.9274C27.3384 37.1551 27.4718 38.4127 27.7237 39.6255C28.0348 41.1077 28.5682 42.4851 29.1016 43.8774C29.3535 44.5362 30.0944 44.7159 30.6426 44.2667Z" fill="#EEFBFF"/>
<path d="M12.0021 19.0244L12.0169 19.6382C12.0318 19.9526 11.9132 20.252 11.7206 20.4766L10.9501 21.3001C9.32025 23.0368 14.6099 25.9862 15.6175 26.4054C17.6918 27.2588 19.7662 27.1391 21.9147 26.9744C21.9443 26.9744 21.9888 26.9744 22.0184 26.9744L23.9742 27.0343C24.3595 27.0492 24.7151 26.8396 24.9077 26.4803L24.9373 26.4354C25.3078 25.7617 24.9373 24.8933 24.2261 24.7286L23.9446 24.6687C23.6631 24.6088 23.3964 24.4142 23.2482 24.1447C22.5222 22.8871 21.8702 21.1204 20.5812 20.4916C19.5143 19.9676 18.4475 19.4136 17.3511 18.9645C16.0027 18.4255 14.6099 18.156 13.2023 17.8715C12.5504 17.7667 11.9725 18.3207 12.0021 19.0244Z" fill="#EEFBFF"/>
<path d="M33.544 28.4815C34.7197 25.4124 33.3405 22.0121 30.4633 20.8868C27.5862 19.7614 24.3007 21.3372 23.125 24.4063C21.9492 27.4754 23.3285 30.8757 26.2056 32.0011C29.0827 33.1264 32.3682 31.5506 33.544 28.4815Z" fill="#FFE900"/>
</g>
<path d="M131.546 30.5774C131.418 30.7009 131.182 30.7781 130.964 30.8289C128.873 31.3321 126.628 31.1223 124.812 30.502C122.995 29.8816 121.57 28.8942 120.331 27.8321C120.031 27.57 119.296 26.9744 119.55 26.5652C119.752 26.2448 120.76 26.0607 121.205 25.9675C122.718 25.6529 124.324 25.726 125.692 26.0675C127.552 26.5336 129.019 27.4624 130.204 28.5036C130.772 29.0039 131.295 29.5442 131.581 30.1617C131.625 30.2652 131.67 30.378 131.613 30.4865C131.597 30.5223 131.571 30.5499 131.546 30.5774Z" fill="#AFD08F"/>
<g clip-path="url(#clip1_308_12130)">
<path d="M139.663 9.57807C138.996 10.1073 139.145 10.4257 138.664 10.832C138.346 11.0849 137.732 11.3435 137.172 11.9735C136.941 12.2268 136.652 12.6305 136.519 12.9344C136.474 13.0647 136.409 13.2685 136.354 13.4355C136.292 13.6561 136.28 14.4053 136.355 14.7903C136.423 15.1419 136.619 15.6076 136.766 15.8223C136.936 16.0671 137.103 16.2953 137.337 16.5103C137.421 16.5809 137.504 16.6514 137.588 16.722C137.648 16.7624 137.692 16.8061 137.752 16.8464C137.816 16.9036 137.876 16.9439 137.953 16.981C138.908 17.6639 139.771 18.1389 141.132 18.5691C141.226 18.6029 141.639 18.7484 142.234 18.928C142.344 18.9586 142.455 18.9891 142.57 19.0364C143.722 19.3855 145.353 19.7632 146.606 19.641C147.691 19.5516 148.848 19.2918 149.208 18.2663C149.266 18.116 149.277 17.9922 149.281 17.835C149.328 17.3569 149.269 16.6039 149.165 16.1553C149.044 15.6229 148.921 15.3515 148.685 14.8588C148.595 14.6678 148.509 14.4935 148.406 14.3225C148.353 14.2286 148.299 14.1347 148.246 14.0408C147.51 12.7768 146.487 11.7425 144.296 10.553C143.786 10.27 143.098 9.96956 142.49 9.72298C142.376 9.6757 142.265 9.64515 142.168 9.59459C141.714 9.42221 141.341 9.30366 141.119 9.24258C140.669 9.1739 140.072 9.25519 139.663 9.57807Z" fill="#CF7879"/>
<path d="M147.059 4.61297C146.92 4.70944 146.761 4.79245 146.623 4.88892C145.895 5.37781 146.436 5.09893 145.071 5.81614C144.976 5.8693 144.817 5.9523 144.635 6.09209C144.327 6.30832 143.971 6.72507 143.875 6.8652C143.627 7.20878 143.211 8.03676 143.059 8.60486C142.914 9.11945 142.891 9.62783 142.938 10.1398C142.944 10.2603 142.966 10.3775 142.986 10.4779C143.086 11.0838 143.274 11.69 143.476 12.2762C143.78 13.1204 144.103 13.7004 144.342 14.1228C144.392 14.2 144.442 14.2771 144.475 14.3575C144.475 14.3575 144.475 14.3575 144.479 14.3742C145.417 16.0505 145.776 16.7277 146.079 17.2072C146.183 17.3783 146.279 17.5158 146.396 17.6668C146.51 17.801 146.63 17.9688 146.77 18.15C147.141 18.6164 147.362 18.8514 147.909 19.0576C148.796 19.389 149.725 18.9477 150.205 18.1768C150.232 18.1368 150.276 18.0935 150.303 18.0534C150.466 17.8132 150.64 17.5362 150.807 17.2258C150.923 17.0122 151.039 16.7985 151.134 16.5714C151.994 14.8754 152.624 12.8072 152.759 12.2424C152.818 12.0051 152.874 11.7511 152.929 11.4971C152.96 11.3868 152.974 11.2798 153.005 11.1695C153.447 9.12064 153.756 6.66311 153.084 4.83064C153.045 4.71675 153.005 4.60286 152.952 4.50898C152.886 4.34815 152.806 4.20734 152.726 4.06652C152.49 3.66082 152.048 3.27773 151.513 3.13848C149.89 2.70727 149.06 3.38978 147.059 4.61297Z" fill="#F19294"/>
<path d="M151.108 19.7557C151.432 19.7101 151.692 19.6075 151.895 19.3942C152.531 18.9752 152.232 17.7998 150.953 18.3267C150.645 18.4559 150.141 18.832 150.236 19.2304C150.305 19.5819 150.65 19.8275 151.108 19.7557Z" fill="#9F8080"/>
<path d="M138.977 21.7152C140.409 22.5137 142.745 21.2082 144.899 20.7717C145.509 20.6704 146.153 20.6495 146.628 20.5744C147.983 20.3456 148.207 19.5202 147.408 19.2762C146.813 19.0966 146.001 19.6019 144.147 19.9626C143.136 20.1593 143.15 20.0523 141.243 20.1452C140.93 20.154 140.829 20.1737 140.644 20.2097C140.404 20.2389 139.551 20.4396 139.213 20.5922C139.085 20.6519 138.957 20.7116 138.852 20.8015C138.777 20.8681 138.72 20.9314 138.662 20.9948C138.594 21.0949 138.576 21.1851 138.596 21.2856C138.649 21.4664 138.799 21.6108 138.977 21.7152Z" fill="#B69392"/>
<path d="M148.488 20.8727C148.987 20.8279 149.368 20.719 149.794 20.4798C150.061 20.3236 150.02 20.3837 150.267 20.214C151.413 19.4525 151.043 18.4474 150.25 18.2369C149.752 18.1079 148.557 18.1667 147.318 18.6335C146.7 18.8753 146.425 19.172 146.214 19.6127C146.162 19.7095 146.145 19.7998 146.124 19.8733C146.02 20.3278 146.635 21.0595 148.488 20.8727Z" fill="#736160"/>
</g>
<defs>
<clipPath id="clip0_308_12130">
<rect width="37.2647" height="37.2647" fill="white" transform="translate(10.1641 8.46924)"/>
</clipPath>
<clipPath id="clip1_308_12130">
<rect width="18.3927" height="17.2061" fill="white" transform="matrix(-0.981602 0.190939 0.190939 0.981602 152.711 2.54077)"/>
</clipPath>
</defs>
</svg>
