<svg width="183" height="134" viewBox="0 0 183 134" fill="none" xmlns="http://www.w3.org/2000/svg">
<g clip-path="url(#clip0_308_12089)">
<path d="M43.1183 134H52C52 131.521 50.0054 129.5 47.5591 129.5C45.1129 129.5 43.1183 131.521 43.1183 134Z" fill="#152126"/>
<path d="M48.7617 134H30.9983C30.9983 129.023 34.9875 125 39.88 125C44.7913 125 48.7617 129.023 48.7617 134Z" fill="#FF927E"/>
<path d="M39.7687 126.64C40.3897 126.64 40.8789 127.155 40.8789 127.765C40.8789 128.375 40.3708 128.89 39.7687 128.89C39.1477 128.89 38.6585 128.375 38.6585 127.765C38.6585 127.155 39.1665 126.64 39.7687 126.64Z" fill="#152126"/>
<path d="M35.7609 130.11C36.3818 130.11 36.8711 130.625 36.8711 131.235C36.8711 131.845 36.363 132.36 35.7609 132.36C35.1399 132.36 34.6507 131.845 34.6507 131.235C34.6507 130.625 35.1399 130.11 35.7609 130.11Z" fill="#152126"/>
<path d="M43.796 130.11C44.417 130.11 44.9062 130.625 44.9062 131.235C44.9062 131.845 44.3982 132.36 43.796 132.36C43.1751 132.36 42.6858 131.845 42.6858 131.235C42.6858 130.625 43.1939 130.11 43.796 130.11Z" fill="#152126"/>
</g>
<g clip-path="url(#clip1_308_12089)">
<path d="M155.208 81.8701C151.996 77.7104 150.174 72.0018 151.528 66.7979C151.996 64.9878 152.882 63.2474 154.392 62.1161C154.635 61.9247 156.423 60.3583 156.631 60.5149C158.367 61.8899 159.548 63.3692 160.312 65.4578C161.405 68.3991 161.909 71.7581 161.197 74.8561C160.832 76.4747 160.034 77.9541 158.905 79.155C158.61 79.4509 155.468 82.2181 155.208 81.8701Z" fill="#AFD08F"/>
<path d="M121.34 115.547C122.815 109.752 126.617 103.695 132.137 100.371C134.064 99.2222 136.217 98.4216 138.248 98.5782C138.578 98.5956 141.199 98.6131 141.199 98.8915C141.165 101.293 140.678 103.382 139.359 105.662C137.502 108.899 134.88 112.049 131.651 114.086C129.968 115.165 128.11 115.809 126.27 115.983C125.819 116.017 121.218 116.017 121.34 115.547Z" fill="#AFD08F"/>
<path d="M158.629 94.5752C162.916 93.9487 167.742 94.9233 170.937 98.0039C172.048 99.083 172.933 100.423 173.159 101.972C173.193 102.233 173.593 104.148 173.402 104.235C171.7 104.931 170.173 105.174 168.367 104.896C165.815 104.496 163.194 103.504 161.267 101.728C160.26 100.806 159.514 99.6399 159.097 98.3346C158.993 98.0039 158.281 94.6275 158.629 94.5752Z" fill="#AFD08F"/>
<path d="M104.102 105.122C99.2061 106.08 94.8836 108.742 89.9882 109.7C87.8008 110.135 85.5441 110.204 83.3394 110.605C82.836 110.692 82.3326 110.796 81.8291 110.726C80.5966 110.57 80.232 109.369 80.8223 108.499C81.1174 108.064 81.5687 107.733 82.0374 107.42C84.6588 105.627 87.5925 104.148 90.8214 103.521C95.2655 102.633 99.9526 103.451 104.102 105.122Z" fill="#AECF8E"/>
<path d="M117.918 103.434C114.915 99.5703 111.408 95.8109 106.704 93.705C104.377 92.6608 101.617 92.069 99.1695 92.8696C98.7182 93.0088 98.2668 93.2177 97.9544 93.5484C96.149 95.4803 101.773 98.4216 103.145 99.2396C105.367 100.597 107.572 102.042 110.054 102.982C112.519 103.921 115.383 104.304 117.918 103.434Z" fill="#AECF8E"/>
<path d="M141.251 93.2177C141.32 92.8696 141.199 92.5041 140.886 92.2605C140.4 91.8602 139.654 91.895 139.22 92.3301C136.425 95.0452 133.526 97.8473 129.932 99.6399C124.95 102.129 118.874 102.755 113.024 103.364L112.729 103.399C106.323 104.061 101.289 103.504 96.8967 101.624C90.6298 98.9437 84.1547 96.1938 76.881 95.0103C76.2387 94.9059 75.6311 95.2888 75.5096 95.8632C75.3881 96.4375 75.8221 96.977 76.4644 97.0815C83.4256 98.2127 89.4841 100.789 95.8898 103.521C100.698 105.575 106.149 106.201 113.024 105.488L113.319 105.453C119.134 104.844 125.714 104.165 131.113 101.467C135.036 99.5007 138.074 96.5767 140.99 93.7398C141.112 93.5832 141.199 93.4092 141.251 93.2177Z" fill="#96B980"/>
<path d="M80.4583 97.1859C80.3021 97.3773 79.9375 97.4121 79.6424 97.447C77.4898 97.6036 75.5802 98.8393 73.4276 99.0307C71.6396 99.1874 69.8863 98.5956 68.1156 98.2475C66.5185 97.9343 64.8693 97.8472 63.2723 97.534C62.2828 97.3425 61.2759 97.0815 60.3906 96.6289C59.835 96.3505 58.1685 95.5673 59.4705 95.1496C61.0676 94.6448 62.6647 94.1227 64.2791 93.6528C67.2302 92.7826 70.355 92.0342 73.3929 92.5563C75.1463 92.8522 76.8128 93.5832 78.2189 94.5926C78.9827 95.1322 79.6771 95.7587 80.2674 96.4549C80.4236 96.6289 80.5798 96.8552 80.5104 97.0641C80.5104 97.1163 80.493 97.1511 80.4583 97.1859Z" fill="#AECF8E"/>
<path d="M159.77 21.5118C159.961 21.3551 159.996 20.9896 160.013 20.6938C160.17 18.5356 161.402 16.6211 161.576 14.463C161.732 12.6704 161.142 10.9125 160.795 9.13728C160.482 7.53608 160.395 5.88266 160.1 4.28146C159.909 3.28942 159.649 2.27997 159.215 1.39235C158.937 0.835405 158.173 -0.835409 157.757 0.469917C157.253 2.07112 156.75 3.67232 156.264 5.29092C155.396 8.24966 154.649 11.3824 155.17 14.4282C155.465 16.186 156.194 17.8569 157.184 19.2666C157.722 20.0324 158.347 20.7286 159.024 21.3203C159.197 21.477 159.423 21.6336 159.631 21.564C159.701 21.564 159.753 21.5466 159.77 21.5118Z" fill="#AECF8E"/>
<path d="M167.324 44.9554C168.609 40.0996 171.543 35.9052 172.845 31.0494C173.417 28.8738 173.66 26.6287 174.199 24.4357C174.32 23.9484 174.459 23.4437 174.424 22.9389C174.355 21.7032 173.192 21.2855 172.289 21.8425C171.838 22.1209 171.473 22.556 171.126 23.0085C169.164 25.5496 167.498 28.4213 166.647 31.6063C165.484 36.0096 165.97 40.7436 167.324 44.9554Z" fill="#AECF8E"/>
<path d="M166.803 56.599C162.967 53.588 159.252 50.0723 157.168 45.3557C156.144 43.0236 155.554 40.2563 156.335 37.8023C156.474 37.3497 156.682 36.8972 157.012 36.5839C158.922 34.7739 161.821 40.4129 162.654 41.7878C164.008 44.0156 165.432 46.226 166.352 48.7148C167.272 51.1862 167.636 54.0753 166.803 56.599Z" fill="#AECF8E"/>
<path d="M162.879 76.1614C162.896 76.3877 162.045 76.6836 162.202 76.962C162.531 77.5712 164.233 78.598 164.892 78.7373C167.114 79.2246 169.111 78.8765 170.552 78.1455C174.388 76.1614 176.957 72.9416 180.655 70.8009C181.61 70.244 182.599 69.1301 182.964 68.0336C183.346 66.9371 181.523 66.2932 180.707 66.0321C179.336 65.5796 177.947 65.597 176.714 65.8755C171.263 67.1634 167.427 71.6537 164.007 75.4131C163.625 75.8134 162.826 75.6393 162.879 76.1614Z" fill="#AECF8E"/>
<path d="M156.665 85.4554C156.318 85.525 155.953 85.4031 155.71 85.0899C155.311 84.6025 155.346 83.8542 155.78 83.4191C158.471 80.617 161.248 77.7104 163.019 74.1077C165.484 69.1127 166.109 63.0212 166.716 57.1559L166.751 56.86C167.411 50.4378 166.855 45.3905 164.998 40.9872C162.359 34.7043 159.616 28.2124 158.453 20.92C158.349 20.2761 158.731 19.6669 159.304 19.5451C159.877 19.4232 160.415 19.8584 160.519 20.5023C161.63 27.4815 164.182 33.5556 166.89 39.9778C168.921 44.7988 169.546 50.2638 168.834 57.1559L168.8 57.4518C168.192 63.2822 167.515 69.8785 164.859 75.2912C162.915 79.2246 160.016 82.2704 157.203 85.1943C157.047 85.3161 156.856 85.4206 156.665 85.4554Z" fill="#96B980"/>
<path d="M130.764 100.475L130.799 99.8836C130.816 99.5703 130.712 99.2918 130.521 99.083L129.792 98.2824C128.265 96.5941 133.472 93.6702 134.462 93.2525C136.493 92.3997 138.507 92.5041 140.59 92.6434C140.625 92.6434 140.659 92.6434 140.694 92.6434L142.604 92.5563C142.968 92.5389 143.315 92.7478 143.489 93.0785L143.506 93.1133C143.836 93.7572 143.472 94.6101 142.76 94.7841L142.482 94.8537C142.204 94.9233 141.944 95.1148 141.788 95.3758C141.059 96.6116 140.364 98.352 139.097 98.9611C138.055 99.4833 136.996 100.04 135.92 100.475C134.601 101.015 133.247 101.276 131.875 101.572C131.268 101.711 130.73 101.171 130.764 100.475Z" fill="#CEBA25"/>
<path d="M129.847 82.2008L130.333 81.9049C130.576 81.7482 130.767 81.5046 130.819 81.2261L131.062 80.147C131.566 77.8671 136.721 80.878 137.589 81.5394C139.377 82.8621 140.402 84.707 141.426 86.6389C141.443 86.6737 141.461 86.7085 141.478 86.7259L142.589 88.3619C142.797 88.6752 142.832 89.0929 142.658 89.441L142.641 89.4758C142.311 90.1371 141.426 90.259 140.922 89.7368L140.714 89.528C140.506 89.3191 140.228 89.1973 139.933 89.1973C138.562 89.2147 136.808 89.5628 135.628 88.7796C134.638 88.1356 133.631 87.5091 132.694 86.7955C131.548 85.9253 130.593 84.8636 129.604 83.8194C129.153 83.332 129.274 82.5488 129.847 82.2008Z" fill="#CEBA25"/>
<path d="M145.365 71.3578L145.851 71.6537C146.094 71.8104 146.39 71.8452 146.65 71.7581L147.657 71.4449C149.775 70.7661 149.861 77.0142 149.757 78.1281C149.549 80.4255 148.56 82.2878 147.483 84.1848C147.466 84.2197 147.449 84.2545 147.431 84.2719L146.633 86.0993C146.476 86.4648 146.147 86.6911 145.782 86.6911L145.747 86.6911C145.053 86.7085 144.497 85.9775 144.688 85.2291L144.758 84.9506C144.827 84.6548 144.792 84.3415 144.636 84.063C143.942 82.8099 142.779 81.3827 142.831 79.9034C142.883 78.6851 142.883 77.432 143.004 76.2311C143.161 74.7343 143.543 73.3419 143.907 71.9148C144.115 71.2882 144.81 71.0097 145.365 71.3578Z" fill="#CEBA25"/>
<path d="M160.917 79.2942L160.952 79.886C160.969 80.1993 161.091 80.4777 161.299 80.6518L162.098 81.3654C163.782 82.8621 158.921 86.3604 157.966 86.8999C156.039 87.979 154.025 88.1182 151.942 88.2227C151.908 88.2227 151.873 88.2227 151.838 88.2401L149.946 88.5359C149.581 88.5882 149.217 88.4315 149.008 88.1182L148.991 88.0834C148.592 87.4743 148.87 86.5867 149.564 86.343L149.824 86.256C150.102 86.1515 150.328 85.9427 150.449 85.6642C151.057 84.3589 151.543 82.5488 152.741 81.7831C153.73 81.1565 154.702 80.4777 155.727 79.9208C156.994 79.242 158.313 78.8069 159.633 78.3544C160.292 78.1281 160.882 78.5981 160.917 79.2942Z" fill="#CEBA25"/>
<path d="M163.193 99.3614L162.672 99.6051C162.412 99.7269 162.221 99.9706 162.134 100.249C162.134 100.249 161.822 101.293 161.804 101.293C161.127 103.521 156.232 100.058 155.416 99.3266C153.749 97.8473 152.881 95.9154 151.996 93.9139C151.979 93.8791 151.961 93.8443 151.944 93.8269L150.972 92.0864C150.781 91.7557 150.798 91.338 150.989 91.0074L151.007 90.9726C151.388 90.346 152.274 90.2938 152.743 90.8681L152.933 91.0944C153.124 91.3206 153.402 91.4773 153.697 91.4947C155.069 91.5991 156.839 91.4077 157.95 92.2953C158.87 93.0263 159.843 93.7398 160.711 94.523C161.787 95.4977 162.655 96.6464 163.558 97.7777C163.957 98.2998 163.783 99.0656 163.193 99.3614Z" fill="#CEBA25"/>
<path d="M147.5 108.394L147.014 108.081C146.771 107.924 146.476 107.872 146.216 107.942L145.209 108.238C143.073 108.847 143.126 102.616 143.264 101.502C143.525 99.2048 144.566 97.3773 145.677 95.4977C145.695 95.4629 145.712 95.4281 145.73 95.4107L146.563 93.6006C146.719 93.2525 147.049 93.0263 147.431 93.0263L147.465 93.0263C148.16 93.0263 148.698 93.7746 148.49 94.5056L148.42 94.7841C148.333 95.08 148.386 95.3933 148.524 95.6717C149.201 96.9422 150.312 98.4042 150.226 99.8836C150.156 101.102 150.122 102.338 149.965 103.556C149.774 105.035 149.358 106.445 148.958 107.855C148.75 108.516 148.056 108.777 147.5 108.394Z" fill="#CEBA25"/>
<path d="M136.495 105.14L137.051 105.192C137.346 105.209 137.606 105.349 137.763 105.592L138.405 106.462C139.776 108.29 143.213 103.225 143.734 102.233C144.811 100.214 144.984 98.0909 145.14 95.8806C145.14 95.8458 145.14 95.811 145.158 95.7761L145.488 93.7921C145.557 93.4092 145.401 93.0263 145.106 92.7826L145.071 92.7478C144.498 92.3127 143.665 92.5912 143.404 93.3047L143.3 93.5832C143.196 93.8617 142.988 94.1053 142.727 94.2446C141.477 94.8537 139.759 95.3236 139.012 96.5767C138.387 97.6036 137.728 98.6305 137.172 99.6921C136.495 101.015 136.061 102.39 135.593 103.8C135.419 104.444 135.836 105.087 136.495 105.14Z" fill="#FAED6E"/>
<path d="M129.414 89.9109L129.691 90.433C129.83 90.6941 129.865 91.0074 129.778 91.2858L129.448 92.3301C128.754 94.5404 134.639 94.8189 135.698 94.7319C137.868 94.5752 139.656 93.5658 141.479 92.4867C141.513 92.4693 141.531 92.4519 141.565 92.4345L143.319 91.6339C143.666 91.4773 143.892 91.1466 143.909 90.7463L143.909 90.6941C143.944 89.9457 143.267 89.3539 142.572 89.528L142.294 89.5976C142.017 89.6672 141.704 89.615 141.461 89.441C140.298 88.6578 138.979 87.4047 137.573 87.4221C136.41 87.4395 135.246 87.4047 134.101 87.4917C132.695 87.6135 131.358 87.979 130.004 88.3445C129.361 88.5707 129.084 89.3017 129.414 89.9109Z" fill="#FAED6E"/>
<path d="M154.879 74.8735L154.324 74.8909C154.029 74.9083 153.768 74.7865 153.56 74.5776L152.831 73.7945C151.286 72.141 148.387 77.5712 147.97 78.6155C147.12 80.7388 147.154 82.8795 147.224 85.0899C147.224 85.1247 147.224 85.1595 147.224 85.1943L147.102 87.2132C147.085 87.6135 147.259 87.979 147.571 88.1704L147.606 88.1879C148.213 88.5533 149.029 88.1879 149.203 87.4395L149.272 87.1436C149.342 86.8477 149.533 86.5867 149.776 86.43C150.956 85.6816 152.623 85.0029 153.23 83.6801C153.751 82.5837 154.307 81.4872 154.741 80.3733C155.279 78.981 155.574 77.5538 155.886 76.1092C156.025 75.4479 155.539 74.8561 154.879 74.8735Z" fill="#FAED6E"/>
<path d="M155.053 105.662L155.349 105.157C155.505 104.896 155.748 104.722 156.026 104.67L157.05 104.478C159.22 104.061 156.65 98.4564 156.078 97.4992C154.915 95.5499 153.231 94.3664 151.477 93.1829C151.443 93.1655 151.425 93.1481 151.391 93.1133L149.898 91.8602C149.602 91.6165 149.221 91.5643 148.891 91.7383L148.856 91.7557C148.214 92.069 148.057 92.9915 148.526 93.5658L148.717 93.7921C148.908 94.0183 149.012 94.3316 148.978 94.6449C148.891 96.1068 148.457 97.9169 149.151 99.2222C149.707 100.301 150.245 101.398 150.87 102.425C151.634 103.678 152.588 104.757 153.526 105.853C153.96 106.323 154.689 106.236 155.053 105.662Z" fill="#FAED6E"/>
<path d="M138.389 75.1694L138.094 75.6741C137.938 75.9352 137.712 76.1092 137.435 76.1788L136.41 76.4051C134.258 76.875 136.949 82.4096 137.539 83.3494C138.754 85.2813 140.455 86.4126 142.243 87.5439C142.278 87.5613 142.295 87.5787 142.33 87.5961L143.858 88.8144C144.153 89.0581 144.535 89.0929 144.865 88.9188L144.899 88.9014C145.524 88.5707 145.68 87.6483 145.194 87.0914L145.003 86.8825C144.812 86.6563 144.708 86.3604 144.708 86.0471C144.76 84.5851 145.142 82.7577 144.431 81.4698C143.84 80.4081 143.285 79.329 142.643 78.3196C141.844 77.0839 140.872 76.0396 139.917 74.9605C139.466 74.4732 138.737 74.5776 138.389 75.1694Z" fill="#FAED6E"/>
<path d="M164.184 91.3903L163.958 90.8507C163.837 90.5723 163.837 90.259 163.941 89.9979L164.358 88.9885C165.226 86.8477 159.393 86.0471 158.316 86.0297C156.129 85.9949 154.289 86.8303 152.379 87.7353C152.345 87.7527 152.31 87.7702 152.293 87.7702L150.487 88.3967C150.14 88.5185 149.88 88.8318 149.828 89.2147L149.828 89.2669C149.723 89.9979 150.366 90.6593 151.077 90.5548L151.355 90.52C151.633 90.4678 151.945 90.5548 152.171 90.7463C153.265 91.6165 154.48 92.9915 155.869 93.1133C157.014 93.2003 158.178 93.3395 159.341 93.3569C160.764 93.3744 162.118 93.1133 163.507 92.887C164.115 92.7304 164.462 92.0342 164.184 91.3903Z" fill="#FAED6E"/>
<path d="M146.721 84.6896C143.71 84.6896 141.27 87.2766 141.27 90.4678C141.27 93.6591 143.71 96.2461 146.721 96.2461C149.731 96.2461 152.172 93.6591 152.172 90.4678C152.172 87.2766 149.731 84.6896 146.721 84.6896Z" fill="#FFFFFD"/>
</g>
<path d="M16.0282 110.848C12.7516 109.769 9.98618 107.541 6.71018 106.45C5.24207 105.969 3.71458 105.719 2.23332 105.262C1.90422 105.158 1.56382 105.043 1.21725 105.05C0.369299 105.057 0.042079 105.869 0.390989 106.529C0.565443 106.859 0.850165 107.133 1.14741 107.395C2.81613 108.875 4.72162 110.157 6.87052 110.871C9.84185 111.848 13.0982 111.665 16.0282 110.848Z" fill="#AECF8E"/>
<defs>
<clipPath id="clip0_308_12089">
<rect width="21" height="9" fill="white" transform="matrix(-1 0 0 1 52 125)"/>
</clipPath>
<clipPath id="clip1_308_12089">
<rect width="124" height="116" fill="white" transform="translate(183 116) rotate(-180)"/>
</clipPath>
</defs>
</svg>
