<svg width="23" height="14" viewBox="0 0 23 14" fill="none" xmlns="http://www.w3.org/2000/svg">
<path d="M20.2402 1.98967C20.301 2.19606 20.3294 2.41773 20.3422 2.60755C20.4594 4.72679 19.6687 6.94199 18.0183 8.29008C16.4086 9.59932 14.2288 9.98291 12.3457 10.8532C11.4888 11.2581 10.6947 11.751 9.96323 12.3317C9.71101 12.5489 9.116 13.1239 8.73325 12.9913C8.30264 12.8422 8.35584 12.053 8.40118 11.7377C8.65638 9.89308 9.51872 8.19256 10.4994 6.61246C11.6863 4.68016 13.1772 2.80016 15.2853 1.90188C16.4565 1.40723 17.7503 1.24637 19.0423 1.204C19.275 1.19195 19.5156 1.19582 19.7464 1.30225C20.0005 1.45646 20.1569 1.696 20.2402 1.98967Z" fill="#378E6F"/>
<path d="M8.93899 12.0561C8.93899 12.0384 8.939 12.0207 8.92107 12.0031C8.34728 10.0601 7.73762 8.02872 6.4466 6.40365C5.1735 4.79625 3.00387 3.52446 0.870097 3.87773C0.601134 3.93072 0.31424 4.00138 0.152862 4.23101C0.0452765 4.38998 0.00940594 4.58428 0.00940594 4.77858C-0.0802485 6.20935 0.475622 7.65778 1.47975 8.69994C3.47008 10.7313 6.82315 10.9256 8.84934 12.9039C9.08244 12.7096 9.02865 12.3563 8.93899 12.0561Z" fill="#378E6F"/>
</svg>
