<svg width="57" height="61" viewBox="0 0 57 61" fill="none" xmlns="http://www.w3.org/2000/svg">
<mask id="mask0_308_9702" style="mask-type:alpha" maskUnits="userSpaceOnUse" x="0" y="0" width="57" height="61">
<rect x="0.917969" y="11.545" width="44.3673" height="50.4087" transform="rotate(-15 0.917969 11.545)" fill="#D9D9D9"/>
</mask>
<g mask="url(#mask0_308_9702)">
<g opacity="0.1">
<path d="M31.459 35.4546C31.5524 34.6178 31.8916 33.7859 32.2158 32.9778C34.045 28.1557 34.7477 20.5549 40.6912 19.0084C41.4032 18.8247 42.1374 18.7379 42.864 18.7954C43.2348 18.8123 43.6858 18.9127 43.8283 19.2673C43.953 19.5444 43.826 19.8793 43.7094 20.171C42.8219 22.4332 42.8348 24.978 41.9904 27.2507C41.2686 29.1691 39.9783 30.8307 38.462 32.2179C36.9413 33.5858 35.1991 34.6987 33.4197 35.7387C32.9175 36.0373 32.3765 36.3448 31.815 36.4736C31.7375 36.4913 31.66 36.5091 31.608 36.4599C31.5172 36.4196 31.4861 36.284 31.4833 36.1828C31.4256 35.931 31.4304 35.6853 31.459 35.4546Z" fill="#628788"/>
<path d="M39.7679 45.8303C39.7641 45.8104 39.7603 45.7905 39.7765 45.7668C40.0007 43.4559 40.246 41.0378 41.3345 38.935C42.4068 36.856 44.5463 34.9676 46.9915 34.919C47.3015 34.9224 47.6352 34.942 47.8633 35.1671C48.0166 35.3238 48.0977 35.5354 48.139 35.7545C48.5428 37.3489 48.2333 39.0985 47.3396 40.4839C45.5607 43.1912 41.8777 44.1125 40.0477 46.7676C39.7475 46.5973 39.7321 46.1877 39.7679 45.8303Z" fill="#628788"/>
<path d="M44.4851 36.9455C44.4504 37.369 44.4028 37.8021 44.3338 38.2209C44.2633 38.6508 44.1828 39.0681 44.0779 39.4933C43.8696 40.3327 43.5696 41.1594 43.1809 41.9515C42.7922 42.7436 42.2652 43.4379 41.8169 44.1542C41.3571 44.869 40.9301 45.5995 40.5605 46.3378C40.1909 47.0762 39.8786 47.8224 39.6266 48.5543C39.5063 48.921 39.3975 49.2894 39.2987 49.6703L39.2363 49.9548C39.2227 50.0544 39.1991 50.1413 39.174 50.2393C39.1604 50.3389 39.1353 50.4369 39.1217 50.5365L39.0693 50.8336C38.9259 51.6255 38.8039 52.4315 38.7376 53.2565C38.6714 54.0815 38.6869 54.9064 38.6535 55.7471C38.6492 55.9494 38.476 56.106 38.2681 56.0888C38.0947 56.0764 37.9594 55.9564 37.9217 55.8047C37.7214 54.9658 37.6271 54.1189 37.536 53.2498C37.4562 52.3823 37.4009 51.5069 37.4748 50.6266C37.4936 50.4037 37.5124 50.1809 37.5527 49.9723C37.583 49.751 37.6262 49.5202 37.6794 49.3021C37.7874 48.8548 37.9282 48.4232 38.1133 48.009C38.4737 47.1679 38.9724 46.4247 39.4994 45.7304C40.0265 45.0362 40.562 44.3656 41.0531 43.6777C41.5443 42.9898 41.9353 42.2657 42.3263 41.5415C42.7159 40.8284 43.0182 40.0696 43.2419 39.2887C43.3537 38.8983 43.4556 38.4952 43.5445 38.1016C43.6349 37.697 43.7024 37.2892 43.7699 36.8814C43.7972 36.6823 43.9903 36.5509 44.1951 36.5902C44.3586 36.5901 44.4978 36.7669 44.4851 36.9455Z" fill="#628788"/>
<path d="M28.1061 31.6866C28.1651 30.5956 27.9085 29.4584 27.6659 28.3548C26.3537 21.7921 27.0762 11.9131 19.7986 8.66518C18.9264 8.27812 18.0051 8.01026 17.0628 7.92889C16.5846 7.87138 15.9858 7.9036 15.7278 8.32707C15.509 8.6552 15.6001 9.11094 15.6871 9.50919C16.3404 12.5942 15.7808 15.8489 16.3766 18.9381C16.8912 21.5477 18.1882 23.9499 19.8329 26.0491C21.4875 28.1246 23.4801 29.9209 25.5357 31.6318C26.1149 32.1212 26.7417 32.6303 27.433 32.9149C27.5283 32.9542 27.6237 32.9935 27.7008 32.9416C27.8256 32.9094 27.8943 32.7425 27.9196 32.6135C28.0472 32.3036 28.0935 31.9881 28.1061 31.6866Z" fill="#628788"/>
<path d="M36.4252 45.9731C36.4025 45.9454 36.3798 45.9178 36.3294 45.9128C32.9451 43.5967 29.392 41.1877 25.3101 40.2783C21.2786 39.3738 16.2955 40.1308 13.4578 43.3875C13.111 43.8113 12.7593 44.2854 12.8056 44.8495C12.8441 45.2348 13.0386 45.5846 13.2885 45.8889C14.9904 48.2433 17.7109 49.8075 20.6004 50.1675C26.2837 50.8272 31.7068 46.8833 37.3773 47.4146C37.4871 46.8149 36.9497 46.3298 36.4252 45.9731Z" fill="#628788"/>
<path d="M22.208 21.5498C22.4161 22.3521 22.6469 23.1702 22.9041 23.9575C23.1677 24.7657 23.4414 25.548 23.7541 26.3412C24.3732 27.9068 25.1234 29.4325 25.9921 30.8767C26.8607 32.3209 27.8979 33.5544 28.8268 34.8436C29.7721 36.1278 30.6745 37.4478 31.4951 38.7927C32.3156 40.1376 33.0542 41.5074 33.6982 42.8605C34.012 43.5395 34.3095 44.2235 34.5968 44.9333L34.7944 45.4654C34.8515 45.6531 34.9185 45.8149 34.992 45.9975C35.049 46.1852 35.1225 46.3678 35.1795 46.5555L35.367 47.1135C35.8725 48.5997 36.3516 50.1167 36.7551 51.6795C37.1586 53.2423 37.4411 54.8192 37.8018 56.4178C37.8831 56.803 38.1975 57.0719 38.4988 57.0031C38.7509 56.9492 38.9069 56.6968 38.9064 56.4008C38.8924 54.7652 38.7183 53.1326 38.5315 51.4584C38.3283 49.7891 38.086 48.109 37.6508 46.442C37.5404 46.02 37.4301 45.598 37.2932 45.2068C37.1665 44.7898 37.017 44.357 36.8575 43.9499C36.532 43.115 36.1638 42.3159 35.7364 41.5576C34.8916 40.015 33.8781 38.6832 32.8409 37.4497C31.8036 36.2162 30.7627 35.0294 29.7809 33.8019C28.7992 32.5743 27.9522 31.2602 27.1052 29.9461C26.2646 28.6528 25.5361 27.2572 24.9158 25.8058C24.6057 25.0801 24.3057 24.3286 24.0284 23.593C23.7447 22.8365 23.4938 22.07 23.2429 21.3036C23.1288 20.9283 22.7943 20.7111 22.5057 20.8216C22.2636 20.8496 22.123 21.2112 22.208 21.5498Z" fill="#628788"/>
</g>
</g>
</svg>
