<svg width="289" height="249" viewBox="0 0 289 249" fill="none" xmlns="http://www.w3.org/2000/svg">
<g opacity="0.12">
<path d="M201.849 122.511C200.278 117.776 200.063 112.464 199.825 107.317C197.83 76.8654 182.766 34.209 211.412 11.316C214.847 8.58205 218.645 6.31515 222.761 4.84475C224.83 4.02716 227.545 3.46244 229.206 5.023C230.577 6.20995 230.716 8.32468 230.804 10.1812C231.579 24.5393 237.98 38.213 239.017 52.5217C239.843 64.6224 236.922 76.7325 232.083 87.9191C227.172 99.0123 220.415 109.275 213.275 119.236C211.272 122.075 209.079 125.057 206.33 127.126C205.95 127.412 205.571 127.697 205.164 127.56C204.567 127.565 204.06 126.911 203.793 126.373C202.851 125.159 202.266 123.824 201.849 122.511Z" fill="white"/>
<path d="M181.757 195.249C181.826 195.1 181.894 194.952 182.113 194.871C194.469 180.676 207.469 165.873 224.628 157.051C241.569 148.31 264.754 145.764 281.342 156.758C283.4 158.215 285.541 159.888 286.01 162.427C286.299 164.17 285.848 165.94 285.096 167.575C280.308 179.952 270.019 190.052 257.531 195.047C232.913 204.66 203.942 193.69 179.227 202.721C178.018 200.21 179.84 197.439 181.757 195.249Z" fill="white"/>
<path d="M216.061 70.9078C216.092 74.6867 216.04 78.5622 215.833 82.3333C215.623 86.2036 215.337 89.9721 214.889 93.8346C213.996 101.46 212.47 109.065 210.317 116.451C208.163 123.836 205.004 130.493 202.395 137.267C199.707 144.038 197.254 150.917 195.197 157.809C193.139 164.7 191.478 171.605 190.22 178.324C189.63 181.685 189.12 185.048 188.685 188.513L188.44 191.09C188.409 191.984 188.303 192.776 188.194 193.667C188.163 194.561 188.054 195.452 188.024 196.346L187.854 199.024C187.374 206.166 187.05 213.413 187.118 220.772C187.186 228.131 187.812 235.409 188.114 242.876C188.212 244.668 187.129 246.223 185.699 246.276C184.508 246.336 183.508 245.409 183.156 244.105C181.259 236.884 180.082 229.489 178.911 221.895C177.82 214.303 176.89 206.618 176.839 198.762C176.827 196.773 176.815 194.784 176.958 192.9C177.025 190.914 177.175 188.831 177.401 186.85C177.855 182.789 178.544 178.835 179.547 174.991C181.476 167.2 184.411 160.139 187.571 153.482C190.731 146.826 193.963 140.37 196.882 133.805C199.8 127.24 202.013 120.453 204.225 113.666C206.434 106.978 208.019 99.9716 209.053 92.8476C209.571 89.2856 210.012 85.6217 210.37 82.0545C210.732 78.3879 210.936 74.7162 211.14 71.0445C211.2 69.257 212.435 67.9057 213.858 68.0518C214.974 67.8896 216.036 69.3163 216.061 70.9078Z" fill="white"/>
<path d="M191.356 143.069C189.936 139.494 187.423 136.23 185.006 133.054C171.051 113.975 158.804 81.3287 130.379 81.5314C126.976 81.5627 123.589 82.0466 120.41 83.1576C118.773 83.6695 116.876 84.6439 116.664 86.3737C116.438 87.7414 117.407 89.0664 118.278 90.2135C124.956 99.1292 127.947 110.352 134.445 119.365C139.97 126.963 147.729 132.758 156.17 137.078C164.607 141.308 173.73 144.153 182.931 146.634C185.534 147.356 188.32 148.072 190.985 147.977C191.353 147.964 191.72 147.95 191.894 147.672C192.252 147.387 192.228 146.754 192.12 146.304C192.076 145.128 191.761 144.051 191.356 143.069Z" fill="white"/>
<path d="M166.629 198.57C166.622 198.478 166.615 198.386 166.514 198.3C162.743 188.387 158.75 178.027 151.364 170.05C144.08 162.159 132.252 156.367 121.262 159.039C119.88 159.42 118.412 159.9 117.662 161.16C117.164 162.031 117.055 163.059 117.133 164.073C117.237 171.571 120.717 178.912 126.372 183.958C137.568 193.783 155.138 193.494 166.5 203.028C167.639 201.924 167.217 200.102 166.629 198.57Z" fill="white"/>
<path d="M134.917 164.999C135.579 166.823 136.311 168.674 137.121 170.437C137.951 172.248 138.811 173.99 139.79 175.739C141.726 179.19 144.058 182.477 146.745 185.507C149.431 188.537 152.619 190.973 155.482 193.599C158.394 196.204 161.177 198.917 163.714 201.733C166.251 204.549 168.542 207.467 170.545 210.393C171.522 211.866 172.45 213.36 173.348 214.921L173.967 216.1C174.148 216.523 174.357 216.878 174.587 217.28C174.767 217.702 174.997 218.104 175.177 218.527L175.767 219.774C177.357 223.092 178.868 226.498 180.152 230.053C181.437 233.608 182.356 237.26 183.512 240.923C183.774 241.809 184.736 242.294 185.644 241.973C186.405 241.714 186.866 241.026 186.853 240.313C186.744 236.382 186.15 232.541 185.517 228.605C184.834 224.691 184.032 220.77 182.648 216.98C182.297 216.021 181.946 215.062 181.516 214.19C181.115 213.251 180.645 212.286 180.146 211.388C179.128 209.546 177.981 207.811 176.657 206.205C174.039 202.926 170.919 200.242 167.731 197.806C164.543 195.37 161.345 193.049 158.325 190.599C155.305 188.149 152.69 185.421 150.074 182.693C147.478 180.012 145.217 177.027 143.282 173.852C142.314 172.264 141.376 170.609 140.507 168.98C139.618 167.305 138.828 165.589 138.037 163.872C137.677 163.028 136.656 162.677 135.788 163.092C135.057 163.284 134.646 164.227 134.917 164.999Z" fill="white"/>
<path d="M48.7256 173.916C49.6046 171.265 49.7251 168.292 49.8581 165.411C50.9747 148.366 59.4072 124.489 43.3727 111.675C41.4496 110.145 39.3237 108.876 37.0201 108.053C35.8621 107.595 34.342 107.279 33.4123 108.152C32.6448 108.817 32.5672 110 32.5177 111.04C32.0841 119.077 28.5012 126.73 27.9209 134.74C27.4586 141.513 29.0936 148.291 31.8021 154.553C34.551 160.762 38.3328 166.507 42.3299 172.083C43.451 173.672 44.6783 175.341 46.2174 176.499C46.4297 176.659 46.6419 176.819 46.8697 176.742C47.2037 176.745 47.4875 176.379 47.6372 176.077C48.1644 175.398 48.4918 174.65 48.7256 173.916Z" fill="white"/>
<path d="M59.9695 214.636C59.9312 214.552 59.893 214.469 59.7702 214.424C52.8542 206.478 45.5777 198.193 35.9726 193.254C26.4903 188.362 13.5125 186.936 4.22734 193.09C3.07529 193.906 1.87708 194.842 1.61483 196.264C1.45276 197.239 1.7051 198.23 2.12641 199.145C4.80651 206.073 10.5657 211.726 17.5554 214.523C31.3355 219.903 47.5515 213.763 61.3857 218.818C62.0624 217.412 61.043 215.861 59.9695 214.636Z" fill="white"/>
<path d="M40.7686 145.036C40.7514 147.151 40.7805 149.321 40.8963 151.431C41.014 153.598 41.1742 155.707 41.4249 157.869C41.9245 162.138 42.7788 166.394 43.9842 170.529C45.1895 174.663 46.9581 178.388 48.4182 182.18C49.9226 185.971 51.2959 189.821 52.4474 193.678C53.599 197.536 54.5289 201.401 55.2332 205.162C55.5633 207.043 55.8489 208.925 56.0921 210.865L56.2298 212.307C56.2467 212.808 56.3061 213.251 56.3673 213.75C56.3843 214.25 56.4455 214.749 56.4625 215.249L56.5576 216.749C56.8261 220.746 57.0077 224.803 56.9696 228.922C56.9314 233.041 56.581 237.115 56.4117 241.294C56.3569 242.298 56.9635 243.168 57.7635 243.197C58.4305 243.231 58.99 242.712 59.1873 241.982C60.2491 237.94 60.9081 233.801 61.5632 229.55C62.1741 225.301 62.6944 220.999 62.7231 216.602C62.7298 215.489 62.7365 214.375 62.6565 213.321C62.6188 212.209 62.535 211.043 62.4087 209.934C62.1542 207.661 61.7685 205.448 61.2074 203.296C60.1276 198.935 58.4845 194.983 56.7159 191.257C54.9473 187.531 53.1381 183.917 51.5044 180.243C49.8707 176.568 48.6323 172.769 47.394 168.97C46.1575 165.226 45.2701 161.304 44.6912 157.317C44.4018 155.323 44.1548 153.272 43.9541 151.275C43.7514 149.223 43.6375 147.168 43.5235 145.113C43.4897 144.112 42.7982 143.356 42.0019 143.437C41.3773 143.347 40.7829 144.145 40.7686 145.036Z" fill="white"/>
<path d="M54.5968 185.422C55.3917 183.421 56.7983 181.595 58.1515 179.817C65.9625 169.137 72.8177 150.864 88.7284 150.977C90.6334 150.995 92.529 151.266 94.3087 151.887C95.2252 152.174 96.2867 152.719 96.4054 153.688C96.5317 154.453 95.9893 155.195 95.502 155.837C91.7639 160.828 90.0899 167.11 86.4528 172.155C83.36 176.407 79.0169 179.651 74.2922 182.069C69.5694 184.437 64.4632 186.03 59.313 187.418C57.856 187.822 56.296 188.223 54.8043 188.17C54.5986 188.162 54.3929 188.155 54.2956 187.999C54.0955 187.84 54.1086 187.485 54.1694 187.234C54.1937 186.575 54.3704 185.972 54.5968 185.422Z" fill="white"/>
<path d="M68.4233 216.495C68.4273 216.443 68.4312 216.391 68.4875 216.344C70.5983 210.795 72.8336 204.996 76.9675 200.531C81.045 196.114 87.6654 192.872 93.817 194.367C94.5906 194.58 95.4125 194.849 95.8323 195.555C96.1108 196.042 96.1721 196.617 96.1285 197.185C96.0698 201.382 94.1222 205.491 90.9566 208.316C84.6897 213.815 74.855 213.653 68.4952 218.99C67.8581 218.372 68.0943 217.352 68.4233 216.495Z" fill="white"/>
<path d="M86.1845 197.706C85.8138 198.727 85.4043 199.763 84.9507 200.75C84.486 201.763 84.0048 202.739 83.4571 203.718C82.373 205.649 81.0678 207.489 79.5641 209.185C78.0603 210.881 76.2758 212.244 74.6735 213.714C73.0436 215.172 71.4854 216.691 70.0653 218.267C68.6452 219.843 67.3633 221.477 66.2419 223.115C65.695 223.939 65.1758 224.775 64.6729 225.649L64.3262 226.309C64.2253 226.546 64.1081 226.745 63.9795 226.97C63.8787 227.206 63.7502 227.431 63.6493 227.668L63.319 228.366C62.4291 230.223 61.5832 232.129 60.8643 234.119C60.1453 236.109 59.631 238.153 58.9837 240.204C58.8372 240.7 58.2987 240.971 57.7901 240.792C57.3645 240.646 57.1062 240.261 57.1138 239.862C57.1749 237.662 57.507 235.512 57.8615 233.309C58.2437 231.118 58.6924 228.923 59.4674 226.802C59.6639 226.265 59.8605 225.728 60.1011 225.24C60.3253 224.715 60.5883 224.174 60.8677 223.672C61.4378 222.64 62.0796 221.67 62.8206 220.771C64.2863 218.935 66.0327 217.433 67.8172 216.069C69.6017 214.706 71.3914 213.406 73.0818 212.035C74.7722 210.664 76.2363 209.137 77.7005 207.61C79.1534 206.109 80.4189 204.438 81.5022 202.661C82.0439 201.772 82.5691 200.846 83.0555 199.934C83.5532 198.997 83.9955 198.036 84.4379 197.075C84.6396 196.602 85.211 196.406 85.6971 196.638C86.1063 196.746 86.3362 197.274 86.1845 197.706Z" fill="white"/>
</g>
</svg>
