<svg width="169" height="107" viewBox="0 0 169 107" fill="none" xmlns="http://www.w3.org/2000/svg">
<g opacity="0.08">
<path d="M81.2248 41.9268C84.3578 40.3739 88.026 39.6902 91.5774 39.0078C112.532 34.5672 140.664 19.9504 159.416 37.2406C161.657 39.3155 163.61 41.6854 165.041 44.3531C165.815 45.6863 166.477 47.4875 165.558 48.7817C164.87 49.8398 163.415 50.1482 162.134 50.3963C152.238 52.3765 143.376 58.1376 133.54 60.2922C125.216 62.0794 116.514 61.3036 108.262 59.1223C100.067 56.8821 92.2659 53.2953 84.6362 49.4148C82.4649 48.331 80.1756 47.1318 78.4644 45.4592C78.2284 45.2285 77.9923 44.9979 78.0473 44.7055C77.9843 44.2978 78.3881 43.8848 78.7355 43.6474C79.4852 42.8803 80.3543 42.3452 81.2248 41.9268Z" fill="white"/>
<path d="M54.581 32.5228C54.6846 32.5718 54.7882 32.6207 54.8428 32.7733C64.6678 41.476 74.9128 50.6308 80.9142 62.5946C86.861 74.4058 88.3906 90.4647 80.4899 101.81C79.4444 103.216 78.2463 104.677 76.459 104.973C75.233 105.153 73.9958 104.822 72.8565 104.283C64.2224 100.833 57.2483 93.6052 53.8809 84.9151C47.4079 67.7854 55.4291 47.8791 49.3648 30.6893C51.1409 29.8817 53.0653 31.1722 54.581 32.5228Z" fill="white"/>
<path d="M123.592 54.7998C120.939 54.7785 118.22 54.6989 115.575 54.5133C112.861 54.3243 110.219 54.0839 107.513 53.7307C102.171 53.0276 96.8506 51.8865 91.691 50.3144C86.5314 48.7423 81.8945 46.4827 77.1691 44.6028C72.4464 42.6682 67.6459 40.8943 62.8318 39.3942C58.0178 37.8941 53.1902 36.6676 48.4885 35.7218C46.1362 35.2763 43.7813 34.8855 41.354 34.546L39.5482 34.3469C38.9212 34.3159 38.3666 34.2337 37.7424 34.1479C37.1155 34.1169 36.4912 34.0312 35.8643 34.0002L33.9861 33.8525C28.9786 33.4404 23.8961 33.1342 18.7304 33.0984C13.5646 33.0625 8.44958 33.4133 3.20606 33.5382C1.94674 33.5857 0.867348 32.819 0.846395 31.8302C0.817324 31.0056 1.47945 30.3249 2.39858 30.096C7.48725 28.8659 12.6909 28.1353 18.0338 27.4116C23.3741 26.7427 28.7786 26.1867 34.2926 26.2398C35.6885 26.2539 37.0845 26.2681 38.4053 26.3883C39.7986 26.4571 41.2587 26.5841 42.6465 26.7625C45.4918 27.1227 48.2593 27.6436 50.9463 28.3801C56.3927 29.8018 61.3163 31.9109 65.9532 34.1706C70.59 36.4302 75.0848 38.7377 79.66 40.8297C84.2353 42.9217 88.9743 44.5279 93.7133 46.134C98.3826 47.7368 103.282 48.9119 108.271 49.7072C110.765 50.1049 113.332 50.4513 115.832 50.7395C118.401 51.0311 120.976 51.2133 123.55 51.3954C124.804 51.4574 125.739 52.3268 125.621 53.3087C125.722 54.082 124.709 54.8002 123.592 54.7998Z" fill="white"/>
</g>
</svg>
