<svg width="63" height="79" viewBox="0 0 63 79" fill="none" xmlns="http://www.w3.org/2000/svg">
<g opacity="0.13">
<path d="M29.3191 43.1708C29.7398 42.0956 30.4844 41.114 31.2007 40.1586C35.3352 34.4203 38.9638 24.6016 47.3856 24.6625C48.394 24.672 49.3974 24.8175 50.3394 25.1517C50.8245 25.3056 51.3864 25.5987 51.4493 26.1189C51.5161 26.5303 51.229 26.9288 50.9711 27.2738C48.9924 29.9554 48.1063 33.3309 46.1811 36.0416C44.544 38.3267 42.2451 40.0696 39.7443 41.369C37.2444 42.6412 34.5416 43.4971 31.8155 44.243C31.0442 44.4604 30.2185 44.6757 29.4289 44.647C29.32 44.643 29.2111 44.639 29.1596 44.5554C29.0537 44.4697 29.0607 44.2792 29.0928 44.144C29.1057 43.7901 29.1993 43.4663 29.3191 43.1708Z" fill="white"/>
<path d="M36.6442 59.8642C36.6462 59.8365 36.6483 59.8088 36.6781 59.7832C37.7954 56.8015 38.9786 53.6855 41.1667 51.2865C43.3251 48.9132 46.8294 47.1711 50.0856 47.9747C50.495 48.0892 50.9301 48.2336 51.1523 48.6127C51.2997 48.8747 51.3321 49.1838 51.3091 49.4886C51.278 51.744 50.2471 53.9517 48.5715 55.4696C45.2543 58.4244 40.0486 58.3376 36.6822 61.205C36.3449 60.8729 36.47 60.3249 36.6442 59.8642Z" fill="white"/>
<path d="M46.0422 49.7682C45.8459 50.317 45.6292 50.8737 45.3891 51.404C45.1431 51.9485 44.8884 52.4726 44.5985 52.9986C44.0246 54.0365 43.3338 55.0252 42.5378 55.9365C41.7418 56.8478 40.7973 57.5804 39.9491 58.3701C39.0864 59.1537 38.2616 59.9698 37.5099 60.8166C36.7582 61.6635 36.0797 62.5411 35.4861 63.4212C35.1966 63.8643 34.9218 64.3135 34.6556 64.7831L34.4721 65.1378C34.4187 65.2649 34.3566 65.3717 34.2886 65.4926C34.2352 65.6196 34.1672 65.7405 34.1138 65.8676L33.939 66.2426C33.4679 67.2406 33.0202 68.2651 32.6396 69.3343C32.2591 70.4036 31.9868 71.5018 31.6442 72.6036C31.5666 72.87 31.2816 73.016 31.0124 72.9195C30.7871 72.8414 30.6504 72.6345 30.6544 72.4202C30.6867 71.2378 30.8625 70.0825 31.0502 68.8989C31.2525 67.7215 31.49 66.5423 31.9002 65.4024C32.0042 65.1139 32.1083 64.8254 32.2356 64.5633C32.3543 64.281 32.4935 63.9907 32.6414 63.7206C32.9432 63.1664 33.2829 62.6447 33.6751 62.1617C34.451 61.1755 35.3754 60.3681 36.32 59.6355C37.2645 58.9029 38.2118 58.2047 39.1066 57.4678C40.0014 56.7309 40.7764 55.9105 41.5514 55.0901C42.3204 54.2837 42.9903 53.3859 43.5637 52.4309C43.8504 51.9534 44.1285 51.4556 44.3859 50.9658C44.6493 50.4619 44.8835 49.9457 45.1176 49.4295C45.2244 49.1754 45.5269 49.07 45.7842 49.1947C46.0008 49.2525 46.1225 49.5362 46.0422 49.7682Z" fill="white"/>
<path d="M26.2085 36.9886C26.6738 35.5644 26.7376 33.9669 26.808 32.4189C27.399 23.26 31.8625 10.4305 23.3751 3.5451C22.3572 2.72282 21.2319 2.04102 20.0126 1.59877C19.3996 1.35287 18.595 1.18302 18.1029 1.65238C17.6966 2.00938 17.6556 2.64541 17.6294 3.20379C17.3998 7.5222 15.5033 11.6348 15.1961 15.9383C14.9514 19.5778 15.8169 23.2201 17.2505 26.5846C18.7056 29.9211 20.7074 33.0078 22.8232 36.0037C23.4166 36.8575 24.0662 37.7543 24.8809 38.3768C24.9932 38.4626 25.1056 38.5485 25.2262 38.5072C25.403 38.5087 25.5532 38.3121 25.6324 38.1501C25.9115 37.7849 26.0848 37.3834 26.2085 36.9886Z" fill="white"/>
<path d="M32.1611 58.8662C32.1409 58.8215 32.1206 58.7767 32.0556 58.7523C28.3948 54.4831 24.5432 50.031 19.459 47.3775C14.4398 44.7485 7.57041 43.9826 2.65559 47.2894C2.04579 47.7276 1.41155 48.2308 1.27273 48.9945C1.18694 49.5185 1.32051 50.0509 1.54352 50.5427C2.96216 54.2654 6.0106 57.303 9.71043 58.8055C17.0045 61.6965 25.588 58.3971 32.9107 61.1135C33.2689 60.3582 32.7293 59.5248 32.1611 58.8662Z" fill="white"/>
<path d="M21.9955 21.4679C21.9864 22.6045 22.0018 23.7701 22.0631 24.9043C22.1254 26.0684 22.2102 27.2018 22.3429 28.3635C22.6074 30.6571 23.0596 32.9444 23.6976 35.1657C24.3356 37.387 25.2718 39.389 26.0446 41.4264C26.8409 43.4631 27.5678 45.5319 28.1774 47.6047C28.7869 49.6774 29.2791 51.7541 29.652 53.7749C29.8267 54.7857 29.9779 55.7973 30.1066 56.8396L30.1795 57.6146C30.1884 57.8834 30.2198 58.1215 30.2523 58.3896C30.2612 58.6584 30.2937 58.9264 30.3026 59.1952L30.353 60.0009C30.4951 62.149 30.5913 64.3286 30.5711 66.5419C30.5509 68.7553 30.3654 70.9442 30.2758 73.1898C30.2467 73.729 30.5678 74.1967 30.9913 74.2125C31.3444 74.2306 31.6405 73.9516 31.7449 73.5594C32.307 71.3878 32.6558 69.1635 33.0026 66.8795C33.3259 64.5962 33.6013 62.2846 33.6165 59.922C33.6201 59.3238 33.6236 58.7257 33.5812 58.159C33.5613 57.5616 33.517 56.9352 33.4501 56.3394C33.3154 55.1179 33.1112 53.9287 32.8142 52.7725C32.2426 50.4293 31.3729 48.3054 30.4368 46.3034C29.5006 44.3013 28.543 42.3598 27.6782 40.3852C26.8135 38.4107 26.158 36.3694 25.5025 34.3281C24.848 32.3166 24.3783 30.2093 24.0719 28.0666C23.9187 26.9953 23.7879 25.8933 23.6817 24.8204C23.5744 23.7177 23.5141 22.6133 23.4538 21.509C23.4359 20.9714 23.0698 20.565 22.6483 20.6089C22.3177 20.5602 22.0031 20.9893 21.9955 21.4679Z" fill="white"/>
</g>
</svg>
